<?xml version="1.0" encoding="iso-8859-1"?>
<!-- Generator: Adobe Illustrator 16.0.0, SVG Export Plug-In . SVG Version: 6.00 Build 0)  -->
<!DOCTYPE svg PUBLIC "-//W3C//DTD SVG 1.1//EN" "http://www.w3.org/Graphics/SVG/1.1/DTD/svg11.dtd">
<svg version="1.1" id="Layer_1" xmlns="http://www.w3.org/2000/svg" xmlns:xlink="http://www.w3.org/1999/xlink" x="0px" y="0px"
	 width="100px" height="100px" viewBox="0 0 100 100" style="enable-background:new 0 0 100 100;" xml:space="preserve">
<line style="fill:none;stroke:#9C9B9B;stroke-miterlimit:10;" x1="7.2" y1="56.8" x2="7.2" y2="67.6"/>
<line style="fill:none;stroke:#9C9B9B;stroke-miterlimit:10;" x1="7.2" y1="38.7" x2="7.2" y2="44.6"/>
<line style="fill:none;stroke:#9C9B9B;stroke-miterlimit:10;" x1="95.8" y1="38.9" x2="95.8" y2="67.6"/>
<line style="fill:none;stroke:#9C9B9B;stroke-miterlimit:10;" x1="48.3" y1="62" x2="48.3" y2="72.8"/>
<line style="fill:none;stroke:#9C9B9B;stroke-miterlimit:10;" x1="50.8" y1="64.3" x2="50.8" y2="70.6"/>
<line style="fill:none;stroke:#9C9B9B;stroke-miterlimit:10;" x1="53.4" y1="62.1" x2="53.4" y2="72.7"/>
<line style="fill:none;stroke:#9C9B9B;stroke-miterlimit:10;" x1="55.4" y1="64.4" x2="55.4" y2="70.7"/>
<line style="fill:none;stroke:#9C9B9B;stroke-miterlimit:10;" x1="57.7" y1="63.7" x2="61.7" y2="63.7"/>
<line style="fill:none;stroke:#9C9B9B;stroke-miterlimit:10;" x1="44.7" y1="62" x2="44.7" y2="66"/>
<line style="fill:none;stroke:#9C9B9B;stroke-miterlimit:10;" x1="42.7" y1="64" x2="46.7" y2="64"/>
<g>
	<circle style="fill:none;stroke:#9C9B9B;stroke-miterlimit:10;" cx="7.2" cy="50.9" r="6"/>
	<g>
		<g>
			<line style="fill:none;stroke:#9C9B9B;stroke-width:0.25;stroke-miterlimit:10;" x1="7.4" y1="54.4" x2="6.1" y2="51"/>
			<g>
				<polygon style="fill:#9C9B9B;" points="6.9,51.2 5.3,48.9 5.6,51.7 				"/>
			</g>
		</g>
	</g>
	<line style="fill:none;stroke:#9C9B9B;stroke-miterlimit:10;" x1="2.5" y1="48" x2="3.8" y2="48.7"/>
	<line style="fill:none;stroke:#9C9B9B;stroke-miterlimit:10;" x1="4" y1="46.5" x2="4.8" y2="47.6"/>
	<line style="fill:none;stroke:#9C9B9B;stroke-miterlimit:10;" x1="6.5" y1="45.6" x2="6.7" y2="47.2"/>
	<line style="fill:none;stroke:#9C9B9B;stroke-miterlimit:10;" x1="9.2" y1="46" x2="8.6" y2="47.3"/>
	<line style="fill:none;stroke:#9C9B9B;stroke-miterlimit:10;" x1="11.4" y1="47.6" x2="10.1" y2="48.2"/>
</g>
<g>
	<path style="fill:none;stroke:#9C9B9B;stroke-miterlimit:10;" d="M50.2,41.4v-4.2c0,0,0.3-1.2-0.8-2.7c0,0-1.9-3.3-2.2-4.2
		c0,0-0.5-2.5,0.2-3.3c0,0,1.7-2,5.1-2c0,0,4.5,0,4.7,2.5c0,0,0.3,1.9,0.1,2.5c0,0-0.8,2-1.3,2.6c0,0-1.6,2.8-1.3,3.3v4.4
		c0,0-0.5,1.6-1.1,1.4C53.5,41.8,50.7,42.2,50.2,41.4z"/>
	<path style="fill:none;stroke:#9C9B9B;stroke-miterlimit:10;" d="M48,39.1c0,0,4.6,0.7,3.6-1.8l-2.4-7.5c0,0,0.1-1.5,1-0.6
		c0,0,0.9,0.7,0.9-0.5c0,0,0.5-1.3,1.5,0.2c0,0,0.4,1.1,1-0.3c0,0,1.5-0.6,1.3,0.8c0,0-1,4.4-1.3,5c0,0-2,4.7,0.9,4.7h2.2"/>
</g>
<line style="fill:none;stroke:#9C9B9B;stroke-miterlimit:10;" x1="96.2" y1="67.6" x2="6.8" y2="67.6"/>
<line style="fill:none;stroke:#9C9B9B;stroke-miterlimit:10;" x1="7" y1="39.1" x2="48.1" y2="39.1"/>
<line style="fill:none;stroke:#9C9B9B;stroke-miterlimit:10;" x1="55.2" y1="39.1" x2="96.5" y2="39.1"/>
</svg>
