<?xml version="1.0" encoding="iso-8859-1"?>
<!-- Generator: Adobe Illustrator 16.0.0, SVG Export Plug-In . SVG Version: 6.00 Build 0)  -->
<!DOCTYPE svg PUBLIC "-//W3C//DTD SVG 1.1//EN" "http://www.w3.org/Graphics/SVG/1.1/DTD/svg11.dtd">
<svg version="1.1" id="Layer_1" xmlns="http://www.w3.org/2000/svg" xmlns:xlink="http://www.w3.org/1999/xlink" x="0px" y="0px"
	 width="100px" height="100px" viewBox="0 0 100 100" style="enable-background:new 0 0 100 100;" xml:space="preserve">
<line style="fill:none;stroke:#868686;stroke-miterlimit:10;" x1="4.2" y1="91.8" x2="96.8" y2="91.8"/>
<circle style="fill:none;stroke:#868686;stroke-miterlimit:10;" cx="48.1" cy="39.2" r="5.4"/>
<circle style="fill:none;stroke:#868686;stroke-miterlimit:10;" cx="47.8" cy="39.1" r="13.5"/>
<circle style="fill:none;stroke:#868686;stroke-miterlimit:10;" cx="48" cy="39.1" r="15.8"/>
<circle style="fill:none;stroke:#868686;stroke-miterlimit:10;" cx="48" cy="39.3" r="27.1"/>
<circle style="fill:none;stroke:#868686;stroke-miterlimit:10;" cx="47.8" cy="39.3" r="31.8"/>
<circle style="fill:none;stroke:#868686;stroke-miterlimit:10;" cx="48" cy="39.2" r="36.9"/>
<circle style="fill:#868686;stroke:#868686;stroke-miterlimit:10;" cx="48.2" cy="39.4" r="1.9"/>
<line style="fill:none;stroke:#868686;stroke-miterlimit:10;" x1="48" y1="2.2" x2="48" y2="76.1"/>
<line style="fill:none;stroke:#868686;stroke-miterlimit:10;" x1="10.4" y1="39.2" x2="84.9" y2="39.2"/>
<line style="fill:none;stroke:#868686;stroke-miterlimit:10;" x1="22.2" y1="13" x2="74.9" y2="65.7"/>
<line style="fill:none;stroke:#868686;stroke-miterlimit:10;" x1="21.7" y1="65.4" x2="74.4" y2="12.7"/>
<g>
	<rect x="7.2" y="40.2" style="fill:#FFFFFF;stroke:#868686;stroke-miterlimit:10;" width="10" height="7.2"/>
	<g>
		<rect x="7" y="46.3" style="fill:#868686;stroke:#868686;stroke-miterlimit:10;" width="10.5" height="4.3"/>
		<line style="fill:none;stroke:#868686;stroke-miterlimit:10;" x1="7" y1="39.9" x2="7" y2="48.2"/>
		<line style="fill:none;stroke:#868686;stroke-miterlimit:10;" x1="17.6" y1="40" x2="17.6" y2="48.3"/>
		<ellipse style="fill:#868686;stroke:#868686;stroke-miterlimit:10;" cx="12.2" cy="39.9" rx="5.7" ry="1.2"/>
	</g>
</g>
<g>
	<rect x="79.2" y="40.2" style="fill:#FFFFFF;stroke:#868686;stroke-miterlimit:10;" width="10" height="7.2"/>
	<g>
		<rect x="79" y="46.3" style="fill:#868686;stroke:#868686;stroke-miterlimit:10;" width="10.5" height="4.3"/>
		<line style="fill:none;stroke:#868686;stroke-miterlimit:10;" x1="79" y1="39.9" x2="79" y2="48.2"/>
		<line style="fill:none;stroke:#868686;stroke-miterlimit:10;" x1="89.6" y1="40" x2="89.6" y2="48.3"/>
		<ellipse style="fill:#868686;stroke:#868686;stroke-miterlimit:10;" cx="84.2" cy="39.9" rx="5.7" ry="1.2"/>
	</g>
</g>
<g>
	<rect x="70.2" y="66.2" style="fill:#FFFFFF;stroke:#868686;stroke-miterlimit:10;" width="10" height="7.2"/>
	<g>
		<rect x="70" y="72.3" style="fill:#868686;stroke:#868686;stroke-miterlimit:10;" width="10.5" height="4.3"/>
		<line style="fill:none;stroke:#868686;stroke-miterlimit:10;" x1="70" y1="65.9" x2="70" y2="74.2"/>
		<line style="fill:none;stroke:#868686;stroke-miterlimit:10;" x1="80.6" y1="66" x2="80.6" y2="74.3"/>
		<ellipse style="fill:#868686;stroke:#868686;stroke-miterlimit:10;" cx="75.2" cy="65.9" rx="5.7" ry="1.2"/>
	</g>
</g>
<g>
	<rect x="16.2" y="66.2" style="fill:#FFFFFF;stroke:#868686;stroke-miterlimit:10;" width="10" height="7.2"/>
	<g>
		<rect x="16" y="72.3" style="fill:#868686;stroke:#868686;stroke-miterlimit:10;" width="10.5" height="4.3"/>
		<line style="fill:none;stroke:#868686;stroke-miterlimit:10;" x1="16" y1="65.9" x2="16" y2="74.2"/>
		<line style="fill:none;stroke:#868686;stroke-miterlimit:10;" x1="26.6" y1="66" x2="26.6" y2="74.3"/>
		<ellipse style="fill:#868686;stroke:#868686;stroke-miterlimit:10;" cx="21.2" cy="65.9" rx="5.7" ry="1.2"/>
	</g>
</g>
<g>
	<rect x="70.2" y="14.2" style="fill:#FFFFFF;stroke:#868686;stroke-miterlimit:10;" width="10" height="7.2"/>
	<g>
		<rect x="70" y="20.3" style="fill:#868686;stroke:#868686;stroke-miterlimit:10;" width="10.5" height="4.3"/>
		<line style="fill:none;stroke:#868686;stroke-miterlimit:10;" x1="70" y1="13.9" x2="70" y2="22.2"/>
		<line style="fill:none;stroke:#868686;stroke-miterlimit:10;" x1="80.6" y1="14" x2="80.6" y2="22.3"/>
		<ellipse style="fill:#868686;stroke:#868686;stroke-miterlimit:10;" cx="75.2" cy="13.9" rx="5.7" ry="1.2"/>
	</g>
</g>
<g>
	<rect x="16.2" y="14.2" style="fill:#FFFFFF;stroke:#868686;stroke-miterlimit:10;" width="10" height="7.2"/>
	<g>
		<rect x="16" y="20.3" style="fill:#868686;stroke:#868686;stroke-miterlimit:10;" width="10.5" height="4.3"/>
		<line style="fill:none;stroke:#868686;stroke-miterlimit:10;" x1="16" y1="13.9" x2="16" y2="22.2"/>
		<line style="fill:none;stroke:#868686;stroke-miterlimit:10;" x1="26.6" y1="14" x2="26.6" y2="22.3"/>
		<ellipse style="fill:#868686;stroke:#868686;stroke-miterlimit:10;" cx="21.2" cy="13.9" rx="5.7" ry="1.2"/>
	</g>
</g>
<g>
	<rect x="42.7" y="3.4" style="fill:#FFFFFF;stroke:#868686;stroke-miterlimit:10;" width="10" height="7.2"/>
	<g>
		<rect x="42.5" y="9.5" style="fill:#868686;stroke:#868686;stroke-miterlimit:10;" width="10.5" height="4.3"/>
		<line style="fill:none;stroke:#868686;stroke-miterlimit:10;" x1="42.5" y1="3.2" x2="42.5" y2="11.4"/>
		<line style="fill:none;stroke:#868686;stroke-miterlimit:10;" x1="53.1" y1="3.3" x2="53.1" y2="11.5"/>
		<ellipse style="fill:#868686;stroke:#868686;stroke-miterlimit:10;" cx="47.7" cy="3.2" rx="5.7" ry="1.2"/>
	</g>
</g>
<g>
	<rect x="42.7" y="76.4" style="fill:#FFFFFF;stroke:#868686;stroke-miterlimit:10;" width="10" height="7.2"/>
	<g>
		<rect x="42.5" y="82.5" style="fill:#868686;stroke:#868686;stroke-miterlimit:10;" width="10.5" height="4.3"/>
		<line style="fill:none;stroke:#868686;stroke-miterlimit:10;" x1="42.5" y1="76.2" x2="42.5" y2="84.4"/>
		<line style="fill:none;stroke:#868686;stroke-miterlimit:10;" x1="53.1" y1="76.3" x2="53.1" y2="84.5"/>
		<ellipse style="fill:#868686;stroke:#868686;stroke-miterlimit:10;" cx="47.7" cy="76.2" rx="5.7" ry="1.2"/>
	</g>
</g>
<line style="fill:none;stroke:#868686;stroke-width:3;stroke-miterlimit:10;" x1="48.1" y1="39.2" x2="34" y2="92"/>
<line style="fill:none;stroke:#868686;stroke-width:3;stroke-miterlimit:10;" x1="48.1" y1="39.2" x2="60.5" y2="92"/>
</svg>
