<?xml version="1.0" encoding="iso-8859-1"?>
<!-- Generator: Adobe Illustrator 16.0.0, SVG Export Plug-In . SVG Version: 6.00 Build 0)  -->
<!DOCTYPE svg PUBLIC "-//W3C//DTD SVG 1.1//EN" "http://www.w3.org/Graphics/SVG/1.1/DTD/svg11.dtd">
<svg version="1.1" id="Layer_1" xmlns="http://www.w3.org/2000/svg" xmlns:xlink="http://www.w3.org/1999/xlink" x="0px" y="0px"
	 width="100px" height="100px" viewBox="0 0 100 100" style="enable-background:new 0 0 100 100;" xml:space="preserve">
<path style="fill:none;stroke:#868686;stroke-width:0.75;stroke-miterlimit:10;" d="M39.8,61c0,0-0.5,2.5-2.6,0.7l-5.6,0.1
	c0,0-2.2,0.6-3.2-0.3c0,0-2.6-0.8-3.8-0.8c0,0-5.8-0.3-6.9-0.9c0,0-1.8-0.3-2-1.9c0,0-0.2-3-3.2-3.3c0,0-4.2-0.6-5.6-0.3
	c0,0-1.9,1.3-2.4,2.8c0,0-0.7,0.5-1.4,0c0,0-1.4-3.4,1.5-7.5c0,0,1.9-1.1,2.4-1c0,0,8.1,0.8,10.2-0.1c0,0,3-1.7,5-6
	c0,0,1.2-2.9,7.8-1.7c0,0,6.8,0.4,7.2,2.5c0,0,3.4,8.1,4,7c0,0,1.9-1,2.2,0.7c0,0-0.1,1.4,2.1,0.7c0,0,3.8-3.6,3.7-0.4
	c0,0-1.1,3.6-0.3,4.6l0.4,0.2c0,0,0.7,4,0.2,6.1l-0.5,0c0,0-0.2-1.1-0.5-1.8c0,0-1.3-1.4-2.2-1.4c0,0-0.8,0.1-1.6-0.5
	c0,0-1.9-1-2.1,0.5c0,0-2.2,2-2.5,1.9S39.8,61,39.8,61"/>
<path style="fill:none;stroke:#868686;stroke-width:0.75;stroke-miterlimit:10;" d="M20.4,48.7c0,0,2.3-2.4,2.6-4
	c0,0,1.2-2.3,5.5-2.4c0,0,1.5-0.2,2,1.4c0,0-0.6,6.3-1.4,7.2C29,50.8,19,51.5,20.4,48.7z"/>
<path style="fill:none;stroke:#868686;stroke-width:0.75;stroke-miterlimit:10;" d="M33.3,43.6c0,0,1.2-0.6,2.2,0.1
	c0,0,2.3,2.6,3.7,6.4c0,0,0.3,1.3-0.3,1.9L33,52.1c0,0-0.9,0.1-1.1-1.5C31.8,50.6,32.7,44,33.3,43.6z"/>
<path style="fill:none;stroke:#868686;stroke-width:0.75;stroke-miterlimit:10;" d="M48.9,56c0,0-0.7,2-0.2,2.7c0,0,0.6,0.2,0.8-0.5
	"/>
<path style="fill:none;stroke:#868686;stroke-width:0.75;stroke-miterlimit:10;" d="M30.9,53.3"/>
<path style="fill:none;stroke:#868686;stroke-width:0.75;stroke-miterlimit:10;" d="M30.8,53.5c0,0,1.4,0.2,2,0.4
	c0.7,0.2,0.9,0.1,1.1,0"/>
<path style="fill:none;stroke:#868686;stroke-width:0.75;stroke-miterlimit:10;" d="M4.6,49.8c0,0,2.1-0.5,2.6,0.4
	c0.5,0.9,0.1,0.9-0.4,1.2c-0.5,0.3-2.4,0.4-3-0.1"/>
<path style="fill:none;stroke:#868686;stroke-width:0.75;stroke-miterlimit:10;" d="M43.9,62.1c0,0,2,0,2.5,1.4c0,0,0.2,2-1.2,2.2
	c0,0-2.6,0.9-2.7-1C42.4,64.6,42.5,62.3,43.9,62.1z"/>
<path style="fill:none;stroke:#868686;stroke-width:0.75;stroke-miterlimit:10;" d="M44.2,59.3c0,0,3.5,0.3,4.4,3.5
	c0,0,0.6,3.6-1.2,4.1c0,0-2.7,1.4-5.3,0.6c0,0-3.9-0.7-2-5.5C40.2,62.1,41.6,59.5,44.2,59.3z"/>
<path style="fill:none;stroke:#868686;stroke-width:0.75;stroke-miterlimit:10;" d="M8.6,59.1c0,0,1.8-1,3.1,0.5c0,0,1.5,1.5,0,3.1
	c0,0-1.4,1.6-3.5,0.2C8.1,62.8,6.3,61.3,8.6,59.1"/>
<path style="fill:none;stroke:#868686;stroke-width:0.75;stroke-miterlimit:10;" d="M8.9,56.3c0,0,3.2-0.3,4.3,1.2
	c1.1,1.6,2.2,1.4,1.7,5.2c0,0-3,3-4.7,2.8c0,0-5.9,0.5-5.6-5C4.6,60.4,5.9,56.4,8.9,56.3z"/>
<path style="fill:none;stroke:#868686;stroke-width:0.75;stroke-miterlimit:10;" d="M49,53.8c0,0,1.4,0.5,1.2,3.3
	C50.3,57.1,49.2,56.9,49,53.8z"/>
<path style="fill:none;stroke:#868686;stroke-width:0.75;stroke-miterlimit:10;" d="M49,53.8c0,0-0.1-1.1,0.7-1.5
	c0.7-0.4,0.1-0.2,0.1-0.2s0.5-1.6,1.6-0.5c0,0,1,0.8,1.5-0.4c0,0,0.4-2.6,1-2.3c0,0,1.4-0.2,1.6,1.4c0,0,2.5,1.7,4-0.9
	c0,0-0.5-4.8,1.4-6.1c0,0,5.3-5.8,17-2.6c0,0,3.5,2.2,4,3.4c0,0,1.3,2.1,3.3,2"/>
<path style="fill:none;stroke:#868686;stroke-width:0.75;stroke-miterlimit:10;" d="M84.8,46c0,0,4.9,0.5,9.7,0.7
	c0,0,1.2,0.3,1.4,0.9c0,0,0.3-0.1,0.7,0.3c0,0,0.6,0.7,0.2,1.5c0,0,1.7,4.3,1.7,5.1c0,0,0.1,1.7-1.4,0.6c0,0-0.4-2.3-3.5-2.9
	c0,0-6.1-0.2-7.2,2.3c0,0-0.7,3.3-1.7,3.4c0,0-8,1.2-10.4,1.3c0,0-8,1.8-10.1,1.9c0,0-3.1,0-4.7-2.5c0,0-1.3-0.7-2.2,0
	c0,0-0.8,0.4-1.6-0.7c0,0-4.2-1.2-4.4,2.5c0,0-0.6,1.2-1-0.3c0,0-0.2,0.4-0.4-3.3"/>
<path style="fill:none;stroke:#868686;stroke-width:0.75;stroke-miterlimit:10;" d="M96,47.6c0,0-1.8,0.7-1.4,1.4
	c0,0,0.4,1.2,2.2,0.6"/>
<path style="fill:none;stroke:#868686;stroke-width:0.75;stroke-miterlimit:10;" d="M38.8,62.3c0,0,0.8,0.6,1,0.6"/>
<path style="fill:none;stroke:#868686;stroke-width:0.75;stroke-miterlimit:10;" d="M48.6,62.3c0,0,0.3,0.2,0.4,0"/>
<path style="fill:none;stroke:#868686;stroke-width:0.75;stroke-miterlimit:10;" d="M50.8,60.9c0,0,0.8,0.5,1.2,0.6"/>
<path style="fill:none;stroke:#868686;stroke-width:0.75;stroke-miterlimit:10;" d="M54.7,62.3c0,0,1.5-1.5,2.9,0
	c0,0,1.2,2.3-0.1,3.1c0,0-1.4,1.1-2.7-0.5C54.7,64.9,53.8,64,54.7,62.3z"/>
<path style="fill:none;stroke:#868686;stroke-width:0.75;stroke-miterlimit:10;" d="M51.7,61.4c0,0,1.9-2.8,4.2-2
	c0,0,4.6,0.3,5.1,4.7c0,0-1.3,4-3.7,3.5C57.3,67.6,50.8,69.1,51.7,61.4z"/>
<path style="fill:none;stroke:#868686;stroke-width:0.75;stroke-miterlimit:10;" d="M85.3,57.6c0,0,1.7,0.4,1.9,0"/>
<path style="fill:none;stroke:#868686;stroke-width:0.75;stroke-miterlimit:10;" d="M90.6,57.5c0,0,2.7-1.1,3.9,0.6
	c0,0,1.3,3-1.6,3.1c0,0-2.9,0.8-3.2-1.6C89.7,59.6,89.7,57.3,90.6,57.5z"/>
<path style="fill:none;stroke:#868686;stroke-width:0.75;stroke-miterlimit:10;" d="M86.9,57.8c0,0,1.5-2.4,2.9-2.5
	c0,0,4.4-1.4,5.9,0.6c0,0,1.2-0.2,1.4-0.8"/>
<path style="fill:none;stroke:#868686;stroke-width:0.75;stroke-miterlimit:10;" d="M95.6,55.8c0,0,1.7,1.1,1.8,3
	c0,0-0.2,3.7-1.9,3.9c0,0-8.3,4.4-8.7-4.9"/>
<path style="fill:none;stroke:#868686;stroke-width:0.75;stroke-miterlimit:10;" d="M67.8,52.1c0,0,1.1,0.2,1.6-0.2s1.1-0.6,1.4-0.3
	"/>
<path style="fill:none;stroke:#868686;stroke-width:0.75;stroke-miterlimit:10;" d="M61.7,44.1c0,0,2.5-2,4.1-2.1c0,0,2.3-0.6,2.8,0
	c0,0,1.5,6.1,0.9,7.3c0,0-0.7,1.2-1.8,0.9c0,0-2.7,0.1-2.9,0.5c0,0-2.1,1.2-2.8-0.3C61.8,50.3,60.6,45.7,61.7,44.1z"/>
<path style="fill:none;stroke:#868686;stroke-width:0.75;stroke-miterlimit:10;" d="M71.8,41.1c0,0,2.3-0.6,3.2,0.3
	c0,0,3.2,1.3,3.6,1.5c0,0,2.8,3,2.9,4c0,0-0.3,2.3-3.8,2c0,0-4.6,0.7-5.3-1.3C72.3,47.5,71.5,44.1,71.8,41.1z"/>
<polygon style="fill:none;stroke:#868686;stroke-width:0.75;stroke-miterlimit:10;" points="38.1,38.1 38.5,37 42.3,40.7 "/>
<path style="fill:none;stroke:#868686;stroke-width:0.75;stroke-miterlimit:10;" d="M41.5,32.1c0,0,1.5-0.1,1.7-0.6
	c0.1-0.5,1,6.1,1,6.1L41.5,32.1z"/>
<path style="fill:none;stroke:#868686;stroke-width:0.75;stroke-miterlimit:10;" d="M47,32.7c0,0,1,0,1.1-0.4c0.1-0.4,0,6.7,0,6.7
	L47,32.7z"/>
<path style="fill:none;stroke:#868686;stroke-width:0.75;stroke-miterlimit:10;" d="M53.3,30c0,0,0.8,1.2,1.2,1l-1.1,6.9L53.3,30z"
	/>
<path style="fill:none;stroke:#868686;stroke-width:0.75;stroke-miterlimit:10;" d="M58.4,37c0,0,0.7,1,1,1l-4.2,4.6L58.4,37z"/>
</svg>
