<?xml version="1.0" encoding="iso-8859-1"?>
<!-- Generator: Adobe Illustrator 16.0.0, SVG Export Plug-In . SVG Version: 6.00 Build 0)  -->
<!DOCTYPE svg PUBLIC "-//W3C//DTD SVG 1.1//EN" "http://www.w3.org/Graphics/SVG/1.1/DTD/svg11.dtd">
<svg version="1.1" id="Layer_1" xmlns="http://www.w3.org/2000/svg" xmlns:xlink="http://www.w3.org/1999/xlink" x="0px" y="0px"
	 width="100px" height="100px" viewBox="0 0 100 100" style="enable-background:new 0 0 100 100;" xml:space="preserve">
<path style="fill:none;stroke:#9C9B9B;stroke-miterlimit:10;" d="M17,16.3c0,0,8.2-1.8,14.8,8.2c0,0,5.7,6.9,3.2,22.8
	c0,0,4.4,28.8,24.2,2.8c0,0,5.9-10,7.6-11.1c0,0,4.2-4.1,6.2-6.4c0,0,8.8-11.2,14.5-13.4c0,0,8-1.1,5,6c0,0-7.3,10.6-8.7,11.8
	s-4.5,6.5-5.2,7.1c0,0-7.2,13.6-9,14.8c0,0-6.2,2-6.4,2.9c0,0-10.9,7.7-11,7.8S52,69.7,52,69.7s-1,1-0.9,1.2"/>
<path style="fill:none;stroke:#9C9B9B;stroke-miterlimit:10;" d="M69.5,58.9c0,0,9.4,1.9,6.6,12.1"/>
<path style="fill:none;stroke:#9C9B9B;stroke-miterlimit:10;" d="M17.1,16.3c0,0-2.9,1.5-2.2,2.6c0,0,2,5.4,3.9,8.4
	c0,0,0.8,3.7,1.8,7.2c0,0,0.4,3.4-0.2,4.8c0,0-1.8,8.6-2.2,9.4c0,0-4.7,7.8-4.7,8.6c0,0-1.3,9.4-1.8,9.3c0,0-1.5,4.3-1.5,4.2"/>
<path style="fill:none;stroke:#9C9B9B;stroke-miterlimit:10;" d="M21.1,35.7c0,0,10.6,1.9,13.6,2.3c3,0.4,27.1,5,27.5,5
	c0.3,0,15.3,2.8,15.8,2.3"/>
<path style="fill:none;stroke:#9C9B9B;stroke-miterlimit:10;" d="M35.4,34.4c0,0,30.2,5,30.2,5.8"/>
<path style="fill:none;stroke:#9C9B9B;stroke-width:0.5;stroke-miterlimit:10;" d="M76.1,29.4c0,0,6.8,4.2,7.8,6.7"/>
<path style="fill:none;stroke:#9C9B9B;stroke-width:0.5;stroke-miterlimit:10;" d="M74.5,31c0,0,6.1,2.9,8.1,6.7"/>
<path style="fill:none;stroke:#9C9B9B;stroke-width:0.5;stroke-miterlimit:10;" d="M15.4,19.5c0,0,3.9-0.4,3.6,8.2"/>
<path style="fill:none;stroke:#9C9B9B;stroke-width:0.25;stroke-miterlimit:10;" d="M35.2,49.5c0,0-14,16.2-22.2,13.3"/>
<path style="fill:none;stroke:#9C9B9B;stroke-width:0.5;stroke-miterlimit:10;" d="M67,60.2c0,0,5.2,2.1,6.9,10.6"/>
<path style="fill:none;stroke:#9C9B9B;stroke-width:0.5;stroke-miterlimit:10;" d="M64.4,60.9c0,0,7.3,4.6,7,10.1"/>
<path style="fill:none;stroke:#9C9B9B;stroke-width:0.5;stroke-miterlimit:10;" d="M75.9,48.9c0,0-9.1-1.6-11.5-6.9"/>
<path style="fill:none;stroke:#9C9B9B;stroke-width:0.5;stroke-miterlimit:10;" d="M77,47.1c0,0-10.5-4.2-11.2-6.6"/>
<path style="fill:none;stroke:#9C9B9B;stroke-width:0.5;stroke-miterlimit:10;" d="M34.7,32.3c0,0-11.5,2.2-13.9,5.6"/>
<path style="fill:none;stroke:#9C9B9B;stroke-width:0.5;stroke-miterlimit:10;" d="M20.2,39.1"/>
<path style="fill:none;stroke:#9C9B9B;stroke-width:0.5;stroke-miterlimit:10;" d="M35.2,34.2c0,0-7.9,0.1-14.7,5.1"/>
<path style="fill:none;stroke:#9C9B9B;stroke-width:0.5;stroke-miterlimit:10;" d="M55.2,55.2c0,0,5.4,1.7,6.7,6.9"/>
<path style="fill:none;stroke:#9C9B9B;stroke-width:0.5;stroke-miterlimit:10;" d="M54,56c0,0,5.4,1.3,6.9,7.2"/>
<path style="fill:none;stroke:#9C9B9B;stroke-width:0.25;stroke-miterlimit:10;" d="M32.4,52.7c0,0,0.9,6.8,2.1,8.3s0.8,8.7,0.6,9.8
	"/>
<line style="fill:none;stroke:#9C9B9B;stroke-miterlimit:10;" x1="9.8" y1="70.8" x2="76.6" y2="70.8"/>
</svg>
