<?xml version="1.0" encoding="iso-8859-1"?>
<!-- Generator: Adobe Illustrator 16.0.0, SVG Export Plug-In . SVG Version: 6.00 Build 0)  -->
<!DOCTYPE svg PUBLIC "-//W3C//DTD SVG 1.1//EN" "http://www.w3.org/Graphics/SVG/1.1/DTD/svg11.dtd">
<svg version="1.1" id="Layer_1" xmlns="http://www.w3.org/2000/svg" xmlns:xlink="http://www.w3.org/1999/xlink" x="0px" y="0px"
	 width="100px" height="100px" viewBox="0 0 100 100" style="enable-background:new 0 0 100 100;" xml:space="preserve">
<line style="fill:none;stroke:#9C9B9B;stroke-miterlimit:10;" x1="1.5" y1="48" x2="1.5" y2="76.2"/>
<line style="fill:none;stroke:#9C9B9B;stroke-miterlimit:10;" x1="1" y1="76.2" x2="91.5" y2="76.2"/>
<line style="fill:none;stroke:#9C9B9B;stroke-miterlimit:10;" x1="91" y1="76.2" x2="91" y2="47.9"/>
<line style="fill:none;stroke:#9C9B9B;stroke-miterlimit:10;" x1="56.9" y1="48.2" x2="56.9" y2="66.1"/>
<line style="fill:none;stroke:#9C9B9B;stroke-miterlimit:10;" x1="57.4" y1="66.1" x2="11.2" y2="66.1"/>
<line style="fill:none;stroke:#9C9B9B;stroke-miterlimit:10;" x1="11.7" y1="66.1" x2="11.7" y2="48"/>
<path style="fill:none;stroke:#9C9B9B;stroke-miterlimit:10;" d="M1.5,54.5"/>
<line style="fill:none;stroke:#9C9B9B;stroke-miterlimit:10;" x1="1.5" y1="54.5" x2="11.9" y2="54.5"/>
<line style="fill:none;stroke:#9C9B9B;stroke-miterlimit:10;" x1="1.4" y1="59.1" x2="11.7" y2="59.1"/>
<rect x="5.3" y="42.1" style="fill:none;stroke:#9C9B9B;stroke-miterlimit:10;" width="2.7" height="12.2"/>
<rect x="56.9" y="52" style="fill:none;stroke:#9C9B9B;stroke-miterlimit:10;" width="34" height="4"/>
<rect x="70.9" y="42.5" style="fill:none;stroke:#9C9B9B;stroke-miterlimit:10;" width="5.8" height="9.5"/>
<rect x="49" y="39.6" style="fill:none;stroke:#9C9B9B;stroke-miterlimit:10;" width="49.4" height="2.8"/>
<g>
	<line style="fill:none;stroke:#9C9B9B;stroke-miterlimit:10;" x1="70.1" y1="35.7" x2="83.9" y2="35.7"/>
	<rect x="70.1" y="17.6" style="fill:none;stroke:#9C9B9B;stroke-miterlimit:10;" width="21.5" height="12.2"/>
	<line style="fill:none;stroke:#9C9B9B;stroke-miterlimit:10;" x1="70.1" y1="29.7" x2="70.1" y2="35.7"/>
	<line style="fill:none;stroke:#9C9B9B;stroke-miterlimit:10;" x1="91.6" y1="29.4" x2="91.6" y2="31.9"/>
	<g>
		<circle style="fill:none;stroke:#9C9B9B;stroke-miterlimit:10;" cx="88.3" cy="34.7" r="4.3"/>
		<circle style="fill:none;stroke:#9C9B9B;stroke-miterlimit:10;" cx="88.3" cy="34.7" r="1.4"/>
	</g>
	<g>
		<circle style="fill:none;stroke:#9C9B9B;stroke-miterlimit:10;" cx="60.5" cy="34.7" r="4.3"/>
		<circle style="fill:none;stroke:#9C9B9B;stroke-miterlimit:10;" cx="60.4" cy="34.7" r="1.4"/>
	</g>
	<rect x="72.6" y="19.3" style="fill:none;stroke:#9C9B9B;stroke-miterlimit:10;" width="3" height="7.1"/>
	<rect x="79" y="19.3" style="fill:none;stroke:#9C9B9B;stroke-miterlimit:10;" width="3" height="7.1"/>
	<rect x="65.6" y="24.2" style="fill:none;stroke:#9C9B9B;stroke-miterlimit:10;" width="2.9" height="3"/>
	<path style="fill:none;stroke:#9C9B9B;stroke-miterlimit:10;" d="M70,22.7c0,0-6.3-0.6-6.5,1"/>
	<line style="fill:none;stroke:#9C9B9B;stroke-miterlimit:10;" x1="63.5" y1="23.6" x2="63.5" y2="28.6"/>
	<line style="fill:none;stroke:#9C9B9B;stroke-miterlimit:10;" x1="64" y1="28.5" x2="58.2" y2="28.5"/>
	<path style="fill:none;stroke:#9C9B9B;stroke-miterlimit:10;" d="M58.3,28.5c0,0-4.9,0.5-3.2,5.6"/>
	<line style="fill:none;stroke:#9C9B9B;stroke-miterlimit:10;" x1="54.6" y1="33.9" x2="56.2" y2="33.9"/>
	<line style="fill:none;stroke:#9C9B9B;stroke-miterlimit:10;" x1="64.6" y1="35.7" x2="70.2" y2="35.7"/>
</g>
</svg>
