<?xml version="1.0" encoding="iso-8859-1"?>
<!-- Generator: Adobe Illustrator 16.0.0, SVG Export Plug-In . SVG Version: 6.00 Build 0)  -->
<!DOCTYPE svg PUBLIC "-//W3C//DTD SVG 1.1//EN" "http://www.w3.org/Graphics/SVG/1.1/DTD/svg11.dtd">
<svg version="1.1" id="Layer_1" xmlns="http://www.w3.org/2000/svg" xmlns:xlink="http://www.w3.org/1999/xlink" x="0px" y="0px"
	 width="100px" height="100px" viewBox="0 0 100 100" style="enable-background:new 0 0 100 100;" xml:space="preserve">
<g>
	<path style="fill:none;stroke:#868686;stroke-miterlimit:10;" d="M72.1,60.6c0,18-14.6,32.7-32.7,32.7c-18,0-32.7-14.6-32.7-32.7
		c0-18,14.6-32.7,32.7-32.7C57.5,28,72.1,42.6,72.1,60.6z"/>
	<path style="fill:none;stroke:#868686;stroke-miterlimit:10;" d="M46.9,29.2l-1,1.6l-1.6,0.6l-2.9,3.2c0,0-2.8-1.2-1.7-4.3
		c1-3.1,0.9-1.7,0.3-2.1"/>
	<path style="fill:none;stroke:#868686;stroke-miterlimit:10;" d="M44,33.5l2-0.9c0,0,0.9,0.1,0.9,0.7c0,0.6-0.9,1.3-0.6,1.4
		C46.6,34.8,43.6,34.5,44,33.5z"/>
	<path style="fill:none;stroke:#868686;stroke-miterlimit:10;" d="M38.5,28.4l0.6,1.2l-1.8,2.1c0,0-1.4-2.1-2.7-0.7
		c-1.3,1.4-1.5-0.1-1.5-0.1l-2.6,1.3c0,0-0.7,4.5,2.4,0.7c0,0,1,0.6,1.6,0c0,0,1.8-2,2.9,0.3l-0.6,2c0,0,0.5,0,0.9-0.2
		c0.5-0.2,0.5-0.2,0.5-0.2s-0.7,4-2.3,3.1c0,0-1.5-2.1-2.2,0.3c0,0-2.3,0.1-2.7,0.2c-0.4,0.1-3,1.2-3.8,0.8c-0.8-0.4-0.1,1.3-3.7,2
		c0,0-0.5,3.5-0.5,3.6c0,0.1,0,0.1,0,0.1s-1.1,0.6-1.6-2.5c0,0-4.1-2.5-6.5,2.1c0,0-0.3,1.6,0.2,2.3c0,0,0.5,0.3,2,0.1
		c0,0,1.3,0.7-0.8,1.9c0,0-0.4,0.9,0.6,1.2c0,0,0,2.6,0,2.7c0,0,2.1,2.7,3.7,0.6c0,0,0.6-1.1,1.7-0.4c0,0,1.6,1.3,2.9,1.4
		c0,0,1.3,0.6,1.6,1.4c0,0,4.2,1.4,4.8,4.7c0,0,1.3,1.2,1.4,2.3c0,0,3.2,0.3,4.8,2.4c0,0,0.1,2.5-1.8,3.6c0,0-2,6.4-5.4,6
		c0,0-2.2,2.8-2.6,3.9c0,0-3.7,2.3-4.1,3.4c0,0-0.8,1.4-0.9,1.9c0,0,0.3,3.4,0.7,4.2c0,0-2.9-1.2-3.9-3.6l-0.5-3c0,0-0.8,0.8,0-4.9
		c0,0-0.6-1.6,0-2.4l0.4-3.1c0,0-1.2-1.1-0.6-2.8c0,0-3.1-2.9-3.4-3.9c0,0-0.4-3.2-0.3-4.3l2.4-3.7c0,0,0.4-1.5-0.4-2L16,53.1
		c0,0-0.2-2.1-1.6-2.8l0-1.5c0,0-2.2-0.5-2.6-2.2l0.1-3.7"/>
	<path style="fill:none;stroke:#868686;stroke-miterlimit:10;" d="M20.4,46.3c0,0,1.3-0.5,1.8,0.4c0,0,1.6,0.3,2.1,0.1
		c0,0,0.7,0.8-0.2,0.9l-2.2-0.2L20,47C20,47,20,46.2,20.4,46.3z"/>
	<path style="fill:none;stroke:#868686;stroke-miterlimit:10;" d="M23.5,49.2l1.7-0.7c0,0,0.9,0.7,1.2,0.6c0.3-0.1,0.1,0.8-0.2,0.9
		c0,0-0.7-0.3-1-0.3C25.3,49.6,23.9,49.8,23.5,49.2z"/>
	<path style="fill:none;stroke:#868686;stroke-miterlimit:10;" d="M57.1,33.3l-2.3,0.2V36c0,0,0.5,0.7,0.8,1.1
		c0.3,0.3,1.2,0.1,1.2,0.1l0.6,1.2l1.6,0l-0.2,1.5l0.3,0.9c0,0-0.5,1.3-2.1,2.2c0,0-2.2-0.3-2.9,0.7c0,0,1.5,3.2,2.6,3.3l2.5-0.4
		c0,0,0.1-2.4,0.4-2.5l2.2,1.1c0,0,0.6-0.8,0.7,0.5l-0.1,0.7c0,0,0.8,1,1.7-0.4c0,0,0.6,0.2,0.4,1c0,0,0.4,1.1,1,0.2
		c0,0,0.6-0.7,0.6,0.4c0,0,0,0.8,1.9,0.9c0,0,1.6,0.9,1.3,2.1l-2.5,0.1l-3.4-2.2l-2.5-0.3c0,0-2.7-0.9-4.9,0c0,0-1.3,0.2-1.8,1
		l-0.9,1.1c0,0-2.9,0.9-2.7,2.6c0,0,0.3,1.5-0.2,2.4c0,0-1.2,3.8-0.6,5.7c0,0,3.7,4,5.4,4.1l4.2,0c0,0,0.6,1.2,2,0.3
		c0,0,0.4,1.2,0.2,2c0,0-1.6,3.6-0.4,4.9c0,0,1.4,1.9-1.2,4.4c0,0-1.9,1.3-0.9,5.1c0,0-1.9,4.3-2.1,5.1c0,0,0.6,1,1.4,0.6"/>
	<path style="fill:none;stroke:#868686;stroke-miterlimit:10;" d="M53.4,36.7c0,0,0.3,0.9-0.1,1.1c-0.4,0.2-0.9,0.5-0.9,0.5l0.5,0.8
		l1.3-0.3c0,0-0.1,1.7,0.7,2c0.9,0.3,1.7-0.8,1.7-0.8s-0.2-2.3-1.9-2.6C54.6,37.4,53.8,35.9,53.4,36.7z"/>
</g>
<g>
	<circle style="fill:none;stroke:#868686;stroke-miterlimit:10;" cx="77.8" cy="21.6" r="4"/>
	<path style="fill:none;stroke:#868686;stroke-miterlimit:10;" d="M76.3,17.7c0,0,6.2-0.9,5.2,5.4l5.9-5.9L82.4,12L76.3,17.7z"/>
	
		<rect x="84.2" y="23.4" transform="matrix(0.7071 0.7071 -0.7071 0.7071 46.1106 -55.4677)" style="fill:none;stroke:#868686;stroke-miterlimit:10;" width="11.7" height="9"/>
	<line style="fill:none;stroke:#868686;stroke-miterlimit:10;" x1="83.7" y1="21" x2="94.5" y2="31.8"/>
	<line style="fill:none;stroke:#868686;stroke-miterlimit:10;" x1="85.5" y1="29.7" x2="91.7" y2="23.5"/>
	<line style="fill:none;stroke:#868686;stroke-miterlimit:10;" x1="88.6" y1="32.8" x2="95" y2="26.4"/>
	
		<rect x="66.1" y="4.5" transform="matrix(-0.7071 -0.7071 0.7071 -0.7071 116.5424 66.2716)" style="fill:none;stroke:#868686;stroke-miterlimit:10;" width="11.7" height="9"/>
	<line style="fill:none;stroke:#868686;stroke-miterlimit:10;" x1="78.3" y1="15.9" x2="67.5" y2="5.2"/>
	<line style="fill:none;stroke:#868686;stroke-miterlimit:10;" x1="76.5" y1="7.2" x2="70.3" y2="13.4"/>
	<line style="fill:none;stroke:#868686;stroke-miterlimit:10;" x1="73.4" y1="4.1" x2="67" y2="10.6"/>
	<line style="fill:none;stroke:#868686;stroke-miterlimit:10;" x1="72.2" y1="27.4" x2="75" y2="24.5"/>
</g>
</svg>
