<?xml version="1.0" encoding="iso-8859-1"?>
<!-- Generator: Adobe Illustrator 16.0.0, SVG Export Plug-In . SVG Version: 6.00 Build 0)  -->
<!DOCTYPE svg PUBLIC "-//W3C//DTD SVG 1.1//EN" "http://www.w3.org/Graphics/SVG/1.1/DTD/svg11.dtd">
<svg version="1.1" id="Layer_1" xmlns="http://www.w3.org/2000/svg" xmlns:xlink="http://www.w3.org/1999/xlink" x="0px" y="0px"
	 width="100px" height="100px" viewBox="0 0 100 100" style="enable-background:new 0 0 100 100;" xml:space="preserve">
<g>
	<path style="fill:none;stroke:#868686;stroke-miterlimit:10;" d="M20.7,47c0,0,32.2-35.8,61.6-37.1c0,0-23.6-12.8-43.9,2.3
		c0,0-1.1,1.3-2.4,1.1C35.9,13.3,16.9,27.3,20.7,47z"/>
	<path style="fill:none;stroke:#868686;stroke-miterlimit:10;" d="M37.4,13c0,0-12.8,15.3-6.5,23.9"/>
	<path style="fill:none;stroke:#868686;stroke-miterlimit:10;" d="M38.4,12.2c0,0-2.6,11.9,3.1,15.6"/>
	<path style="fill:none;stroke:#868686;stroke-miterlimit:10;" d="M37.9,13.2c0,0,4.9-4.9,15.6,6.5"/>
	<path style="fill:none;stroke:#868686;stroke-miterlimit:10;" d="M40,10.7c0,0,13.8-7.5,26.5,2.9"/>
	<path style="fill:none;stroke:#868686;stroke-miterlimit:10;" d="M20.7,47c0,0,1.3,4.2,31.4-11.4"/>
	<path style="fill:none;stroke:#868686;stroke-miterlimit:10;" d="M53.8,34.5c0,0,2.6-1.1,3.7-3.2"/>
	<path style="fill:none;stroke:#868686;stroke-miterlimit:10;" d="M82.3,9.9c0,0,1,4.2-4.6,8.3"/>
	<path style="fill:none;stroke:#868686;stroke-miterlimit:10;" d="M59.5,23.1c0,0,0.3-4.2,2-4.9c0,0,12.4-5.9,18.5,3.1
		c0,0-0.3,1.5-0.8,2.3c-0.5,0.8-0.5,0.8-0.5,0.8S76.1,18.7,59.5,23.1z"/>
	<path style="fill:none;stroke:#868686;stroke-miterlimit:10;" d="M59.5,23.1c0,0-3.3,3.3-4.6,4.7c-1.3,1.5-0.6,0.3-0.6,0.3
		s-2,3.3,3.1,3.3"/>
	<path style="fill:none;stroke:#868686;stroke-miterlimit:10;" d="M78.7,24.4c0,0,2.6,2.3,2.3,5.9c0,0-10.1-9.8-27-1"/>
	<path style="fill:none;stroke:#868686;stroke-miterlimit:10;" d="M81,30.3c0,0,1.1,2.6-2.8,2.1"/>
	<path style="fill:none;stroke:#868686;stroke-miterlimit:10;" d="M72.9,26.2c0,0,1.3,8.8,0.5,10.7c0,0,0.5,3.1,3.4,6
		c0,0,1,2.9,1.1,7.5c0.1,2.5,4.7-3.9,4.7-3.9c1.1-5-3.7-11.2-3.7-11.2c-1.8-2.3-0.8-7.2-0.8-7.2"/>
	<path style="fill:none;stroke:#868686;stroke-miterlimit:10;" d="M59.7,27.2c0,0,0.8,3.9-0.3,5.4c0,0-1.8,4.2,3.1,7
		c0,0,6.5,1.5,10.9-2.6"/>
	<path style="fill:none;stroke:#868686;stroke-miterlimit:10;" d="M68.1,34.7c-1.8,1.5-5.9,0-5.9,0"/>
	<path style="fill:none;stroke:#868686;stroke-miterlimit:10;" d="M63,35c0,0,2.2,3.9,4.3,0.2"/>
	<path style="fill:none;stroke:#868686;stroke-miterlimit:10;" d="M67.8,34c0,0,0,1.1,1,1.3"/>
	<path style="fill:none;stroke:#868686;stroke-miterlimit:10;" d="M64,37.8c0,0,1.4,0.4,2,0.1"/>
	<path style="fill:none;stroke:#868686;stroke-miterlimit:10;" d="M65.7,32.1c0,0-2.6,1.1,0.2,1.6"/>
	<path style="fill:none;stroke:#868686;stroke-miterlimit:10;" d="M60.1,29.8c0,0,3-1.9,3.9,0.8c0,0-0.8,1.9-3.9,0.5"/>
	<ellipse style="fill:none;stroke:#868686;stroke-miterlimit:10;" cx="63.1" cy="30.9" rx="0.5" ry="0.3"/>
	<ellipse style="fill:#9C9B9B;stroke:#868686;stroke-miterlimit:10;" cx="69.8" cy="31.4" rx="0.7" ry="0.5"/>
	<path style="fill:none;stroke:#868686;stroke-miterlimit:10;" d="M60.9,28.2c0,0,0.7-1,1.7-0.3"/>
	<path style="fill:none;stroke:#868686;stroke-miterlimit:10;" d="M68.5,28.1c0,0,1.7-0.7,2.2,0.5"/>
	<path style="fill:none;stroke:#868686;stroke-miterlimit:10;" d="M67.7,30.7c0,0,1.6-2.4,3.6-0.1C71.3,30.6,69.9,33.9,67.7,30.7z"
		/>
	<path style="fill:none;stroke:#868686;stroke-miterlimit:10;" d="M62.5,39.5c0,0,0.1,1.9-1,2.3c0,0,4,4.1,8.3,1.2l-0.2-4"/>
	<path style="fill:none;stroke:#868686;stroke-miterlimit:10;" d="M69.7,43.1c0,0,0,0.7,1.9-0.1c0,0,3.1-2.4,4-1.2"/>
	<path style="fill:none;stroke:#868686;stroke-miterlimit:10;" d="M77.9,50.4c0,0-0.2,6.7-0.2,7.5c0,0,0.1,2-1.8,2.2
		c0,0-7.7,0.4-9.4-1.4c0,0-2.2-0.8-2.8-1.8c0,0,1.5-4.1,0.4-6c0,0,2.6-0.4,8.3,4.1"/>
	<path style="fill:none;stroke:#868686;stroke-miterlimit:10;" d="M70,47.9c0,0,1.2-0.1,1.2,0.9l-0.2,4.9"/>
	<path style="fill:none;stroke:#868686;stroke-miterlimit:10;" d="M66.8,51.6c0,0,0.5,5.6-0.2,6.6"/>
	<line style="fill:none;stroke:#868686;stroke-miterlimit:10;" x1="65.6" y1="56.2" x2="65.7" y2="57.3"/>
	<path style="fill:none;stroke:#868686;stroke-miterlimit:10;" d="M66.7,44c0,0-0.1,6.7-0.7,7.5"/>
	<path style="fill:none;stroke:#868686;stroke-miterlimit:10;" d="M62.8,77.5c0.8-1.9,2-19.7,2-19.7"/>
	<path style="fill:none;stroke:#868686;stroke-miterlimit:10;" d="M75.3,60.1c0,0,2.5,10.3,3.4,11.5c0,0,0.8,1.5,1.7,2
		c0,0-0.6,5.9-18,3.9"/>
	<path style="fill:none;stroke:#868686;stroke-miterlimit:10;" d="M56.5,45.8l-0.1,3.3c0,0-7.4,23.6-8.5,24.7c0,0,3.6,4.3,14.1,4.8
		c0,0,0.8-0.3,0.9-1.5"/>
	<ellipse style="fill:none;stroke:#868686;stroke-miterlimit:10;" cx="64.6" cy="46.3" rx="0.7" ry="0.9"/>
	<ellipse style="fill:none;stroke:#868686;stroke-miterlimit:10;" cx="62.2" cy="63.6" rx="0.6" ry="0.9"/>
	<ellipse style="fill:none;stroke:#868686;stroke-miterlimit:10;" cx="60.6" cy="73.3" rx="0.7" ry="1"/>
	<path style="fill:none;stroke:#868686;stroke-miterlimit:10;" d="M64.1,50.9c0,0-1.2-2.4-2.2-2c0,0-1.6,0.1,0.5,1.7
		c0,0-0.7,0.3-2.8,0.2c0,0-1,0.5,0.2,1.5l0.1,1.8l0.5,0.1l0.4,1.2c0,0,1.7,0.2,3.2,0"/>
	<path style="fill:none;stroke:#868686;stroke-miterlimit:10;" d="M62,56L62,57.5c0,0-1.1,1-2.5-1.8c0,0-2.4-1.5,0,2.5
		c0,0,3,2.7,4.6-0.7"/>
	<path style="fill:none;stroke:#868686;stroke-miterlimit:10;" d="M53.9,56.5c0,0-3.6,1.1-4.7-2c0,0-0.5-4.7,1.4-7.4
		c0,0,0.4-2.3,1-2.4c0,0,2.2,2.8,4.8,2"/>
	<path style="fill:none;stroke:#868686;stroke-miterlimit:10;" d="M50.6,47.1c0,0,1,1.8,5.7,2"/>
	<path style="fill:none;stroke:#868686;stroke-miterlimit:10;" d="M51.9,44.8c0,0-0.5-2,0.6-2.2c0,0-1.1-2.8-0.5-3
		c0,0,1.9-0.7,1.4,2.2c0,0,1.3-1.3,1.7-1.5c0.4-0.2-0.4,0.2-0.4,0.2s1.4-0.8,0.6,1l-1.6,2c0,0-1.6,0.8-1.1-0.8"/>
	<path style="fill:none;stroke:#868686;stroke-miterlimit:10;" d="M55.2,41.3c0,0,1.7-0.2,1.2,1.4l-1.9,1.5c0,0-1.1,0.4-1-0.7"/>
	<path style="fill:none;stroke:#868686;stroke-miterlimit:10;" d="M54.4,44.5c0,0,0.1,1.1,0.9,0.8c0,0,1.6-1.2,2.1-2
		c0,0,0.1-1-0.9-0.6"/>
	<path style="fill:none;stroke:#868686;stroke-miterlimit:10;" d="M55.3,45.5c0,0,0.5,0.8,1.2,0.2l1.4-1.6c0,0,0-0.9-0.9-0.5"/>
	<path style="fill:none;stroke:#868686;stroke-miterlimit:10;" d="M52,42.8c0,0-5.6,3.8-2.7,8.1"/>
	<path style="fill:none;stroke:#868686;stroke-miterlimit:10;" d="M58.4,27.6c0,0-0.4,4.2-1,5.3c-0.7,1.1-2.2,4.8-1.7,5.8l5.6,10.8"
		/>
	<path style="fill:none;stroke:#868686;stroke-miterlimit:10;" d="M59.9,37.2c0,0-0.3,2.3-0.9,2.7"/>
	<path style="fill:none;stroke:#868686;stroke-miterlimit:10;" d="M57.5,42.1c0,0,2.5-0.2,2.6,0.6c0,0.3,0.1-1.1,0.1-1.1
		c0.5-0.3,1.4,0.1,1.4,0.1"/>
	<path style="fill:none;stroke:#868686;stroke-miterlimit:10;" d="M46.5,24.6c0,0,8.5,14.6,8.2,15.8"/>
	<line style="fill:none;stroke:#868686;stroke-miterlimit:10;" x1="48.5" y1="23.1" x2="55.7" y2="38.7"/>
	<path style="fill:none;stroke:#868686;stroke-miterlimit:10;" d="M56.6,78c0,0-1.6,5.4-1.1,6.2c0,0,3.7,2.3,6.3,0.5
		c0,0-0.7-5,0.2-6.1"/>
	<path style="fill:none;stroke:#868686;stroke-miterlimit:10;" d="M55.5,84.2l-0.9,0.3l-0.4,7.7c0,0-7.9,2.4-5.3,4.2
		c0,0,6.8,1.5,7.4-0.7h5.5c0,0,1.5-10,0-11.1"/>
	<path style="fill:none;stroke:#868686;stroke-miterlimit:10;" d="M48.7,96.3c0,0,2.9,4.1,8.3,0.7c0,0,1.1-0.1,1.2,0.5
		c0,0,3.1,0.7,3.6-1.9"/>
	<path style="fill:none;stroke:#868686;stroke-miterlimit:10;" d="M67.2,77.8l0.8,6.7c0,0,5.6,0.8,6.8-0.7c0,0-1.1-4.7-0.7-6.2"/>
	<path style="fill:none;stroke:#868686;stroke-miterlimit:10;" d="M67.3,84.3c0,0,1.9,12,2.6,13.1c0,0,3.3,0.8,4,0.2
		c0,0-0.1-1.5,3.7-0.9c0,0,7.2,1.1,6.2-3.3c0,0-0.1-3.2-6.8-2.2c0,0-0.4-8.3-2.2-7.4"/>
	<path style="fill:none;stroke:#868686;stroke-miterlimit:10;" d="M69.6,96.5c0,0,3.4,0.4,4.6-0.3c0,0,2.2-1,5-0.2
		c0,0,4.7-0.4,4.6-2.4"/>
</g>
<path style="fill:none;stroke:#9C9B9B;stroke-miterlimit:10;" d="M2.8,16.9c0,0-0.5,3.5,1.6,3.9c0,0,0.6,0.2,0.8-1.1
	C5.2,19.6,5.7,18.2,2.8,16.9z"/>
<path style="fill:none;stroke:#9C9B9B;stroke-miterlimit:10;" d="M11.6,9.9c0,0-0.5,3.5,1.6,3.9c0,0,0.6,0.2,0.8-1.1
	C14.1,12.6,14.5,11.2,11.6,9.9z"/>
<path style="fill:none;stroke:#9C9B9B;stroke-miterlimit:10;" d="M30.9,7.1c0,0-0.5,3.5,1.6,3.9c0,0,0.6,0.2,0.8-1.1
	C33.3,9.9,33.8,8.4,30.9,7.1z"/>
<path style="fill:none;stroke:#9C9B9B;stroke-miterlimit:10;" d="M5.3,2.2c0,0-0.5,3.5,1.6,3.9c0,0,0.6,0.2,0.8-1.1
	C7.7,4.9,8.2,3.5,5.3,2.2z"/>
<path style="fill:none;stroke:#9C9B9B;stroke-miterlimit:10;" d="M20.1,2c0,0-0.5,3.5,1.6,3.9c0,0,0.6,0.2,0.8-1.1
	C22.6,4.8,23,3.3,20.1,2z"/>
<path style="fill:none;stroke:#9C9B9B;stroke-miterlimit:10;" d="M43.1,2c0,0-0.5,3.5,1.6,3.9c0,0,0.6,0.2,0.8-1.1
	C45.6,4.8,46,3.3,43.1,2z"/>
<path style="fill:none;stroke:#9C9B9B;stroke-miterlimit:10;" d="M7.1,35.9c0,0-0.5,3.5,1.6,3.9c0,0,0.6,0.2,0.8-1.1
	C9.5,38.7,10,37.2,7.1,35.9z"/>
<path style="fill:none;stroke:#9C9B9B;stroke-miterlimit:10;" d="M15.9,24.4c0,0-0.5,3.5,1.6,3.9c0,0,0.6,0.2,0.8-1.1
	C18.3,27.2,18.8,25.8,15.9,24.4z"/>
<path style="fill:none;stroke:#9C9B9B;stroke-miterlimit:10;" d="M23.1,15.5c0,0-0.5,3.5,1.6,3.9c0,0,0.6,0.2,0.8-1.1
	C25.6,18.3,26,16.8,23.1,15.5z"/>
</svg>
