<?xml version="1.0" encoding="iso-8859-1"?>
<!-- Generator: Adobe Illustrator 16.0.0, SVG Export Plug-In . SVG Version: 6.00 Build 0)  -->
<!DOCTYPE svg PUBLIC "-//W3C//DTD SVG 1.1//EN" "http://www.w3.org/Graphics/SVG/1.1/DTD/svg11.dtd">
<svg version="1.1" id="Layer_1" xmlns="http://www.w3.org/2000/svg" xmlns:xlink="http://www.w3.org/1999/xlink" x="0px" y="0px"
	 width="100px" height="100px" viewBox="0 0 100 100" style="enable-background:new 0 0 100 100;" xml:space="preserve">
<g>
	<path style="fill:none;stroke:#868686;stroke-width:0.5;stroke-miterlimit:10;" d="M67.9,58.4c-0.4-0.5-1.3-1.4-1.6-1.5
		c-0.1,0-1.9-0.8-2.8,1.8c-0.9,2.6,0.3,4.1,0.4,4.2c0.4,0.5,0.8,0.9,1.6,1c0.9,0.1,1.1,0,1.8,0.4c0.7,0.5,1.3,0.2,1.6,0.1
		c0.3-0.2,2.3-2.6,2.7-3.5c0.3-0.6,0.1-3.1-2.4-3c-1.4,0-0.8,0.6-1.6,0.7"/>
	<path style="fill:none;stroke:#868686;stroke-width:0.5;stroke-miterlimit:10;" d="M67.9,58.3c0,0,0.6-1.3,1.3-1.2"/>
	<line style="fill:none;stroke:#868686;stroke-width:0.5;stroke-miterlimit:10;" x1="68.7" y1="57.1" x2="66.9" y2="55.7"/>
	<path style="fill:none;stroke:#868686;stroke-width:0.5;stroke-miterlimit:10;" d="M68.7,57c0,0-0.1-1.1-0.9-1.6s-2.1-0.6-2.1-0.5
		c0,0-0.1,1.3,1.2,2C68.1,57.4,68.6,57.1,68.7,57z"/>
</g>
<g>
	<path style="fill:none;stroke:#868686;stroke-miterlimit:10;" d="M23.9,14.3c0,0,12.3-22.7,27.5-2c0,0,17.8-4.8,21.3,7.5
		c0,0,4,14.7-7,19.3c0,0-0.5,12.7-6.8,14c0,0-7.8,6-18.2-1.3c0,0-11.5,5-17.2,0.2c0,0-4-1.3-6.2-9.2c0,0-14-2.2-14.2-16.7
		C3.2,26.1,6.4,10.9,23.9,14.3z"/>
	<path style="fill:none;stroke:#868686;stroke-miterlimit:10;" d="M29.8,53.8c0,0,3.9,7,4.1,9.9c0.2,3.7,0.3,4.7-8.1,26.6
		C25.4,91.1,46.6,90,46.6,90s-4.3-16.9-3.5-21.2c0.8-4.3,2.2-7.9,11.9-13.5"/>
	<path style="fill:none;stroke:#868686;stroke-miterlimit:10;" d="M37.1,53.1c0,0-0.6,4,2.2,6.9c0,0,5.6-2.2,6.5-5.4"/>
</g>
<line style="fill:none;stroke:#868686;stroke-width:0.75;stroke-miterlimit:10;" x1="45.8" y1="89.9" x2="95.6" y2="89.9"/>
<line style="fill:none;stroke:#868686;stroke-miterlimit:10;" x1="1.8" y1="90" x2="26.2" y2="90.5"/>
<g>
	<path style="fill:none;stroke:#868686;stroke-width:0.5;stroke-miterlimit:10;" d="M57.6,51.7c0,0,3.3,1.3,3.4,3.8"/>
	<path style="fill:none;stroke:#868686;stroke-width:0.5;stroke-miterlimit:10;" d="M61.6,53.7c0,0,0.5,0.5,0.7,1.5"/>
	<path style="fill:none;stroke:#868686;stroke-width:0.5;stroke-miterlimit:10;" d="M56.2,47.7c0,0,5.8,2,7.2,7.3"/>
</g>
<g>
	<path style="fill:none;stroke:#868686;stroke-width:0.5;stroke-miterlimit:10;" d="M48.6,62.4c0,0-1.1-2.2,2.6-2.6
		c0,0,1.8-2.6,3.4,0c0,0,3.4-1.4,2.6,1.3c0,0,3.3,0.3,2.2,2.5c0,0,1.7,0.8-0.1,2.1c0,0,0.5-2.7-3-3.5"/>
	<path style="fill:none;stroke:#868686;stroke-width:0.5;stroke-miterlimit:10;" d="M48.4,62.1c0,0-3.1,1-2.1,3.2
		c0,0-3.2,2.8-0.3,4.1c0,0-2.3,1.7-0.7,2.9c0,0-0.8,4,3.4,1.1c0,0,3,1.1,2.5-1.5c0,0,0.9-1.2-0.8-1.6c0,0,1-1.9-1.1-2.8
		c0,0,1.9-1.1,0.1-2.3c0,0,2.1-0.1,1.7-2.5c0,0,0.8,1.2,2.8-0.7c0,0,1.4,1.1,2.9-0.5"/>
	<path style="fill:none;stroke:#868686;stroke-width:0.5;stroke-miterlimit:10;" d="M59.3,65.7c0,0,0.1,9.4-8.2,6.2"/>
	<path style="fill:none;stroke:#868686;stroke-width:0.5;stroke-miterlimit:10;" d="M54.9,64.8l-0.2,1c0,0-1.7-0.5-2.5,0.3
		C52.3,66.1,52.9,64.6,54.9,64.8z"/>
	<path style="fill:none;stroke:#868686;stroke-width:0.5;stroke-miterlimit:10;" d="M56.8,65.9l0.1-1c0,0,1.8-0.2,1.8,1.2
		C58.7,66.1,57.9,65.1,56.8,65.9z"/>
	<path style="fill:none;stroke:#868686;stroke-width:0.5;stroke-miterlimit:10;" d="M53.1,67.4c0,0,1.8-1.4,1.8,0.5
		c0,0,0.1,1.5-1.4,1.3C53.5,69.3,52,69.2,53.1,67.4z"/>
	<ellipse style="fill:none;stroke:#868686;stroke-width:0.5;stroke-miterlimit:10;" cx="54.3" cy="68.8" rx="0.3" ry="0.2"/>
	<ellipse style="fill:none;stroke:#868686;stroke-width:0.5;stroke-miterlimit:10;" cx="57.1" cy="68.5" rx="0.3" ry="0.2"/>
	<path style="fill:none;stroke:#868686;stroke-width:0.5;stroke-miterlimit:10;" d="M56.8,67.3c0,0,1.2-1,1.6,0.5
		c0,0-0.2,1.4-1.2,1.2C57.2,68.9,56,68.6,56.8,67.3z"/>
	<path style="fill:none;stroke:#868686;stroke-width:0.5;stroke-miterlimit:10;" d="M56.8,69.2c0,0,0.9,1.9-1.1,1.5"/>
	<path style="fill:none;stroke:#868686;stroke-width:0.5;stroke-miterlimit:10;" d="M58.8,69c0,0,1.4,0.6-0.2,2.2c0,0-0.2,3.8-3,1.1
		"/>
	<path style="fill:none;stroke:#868686;stroke-width:0.5;stroke-miterlimit:10;" d="M48.7,73.4c0,0,2.7,2.7,3.4-1.1"/>
	<path style="fill:none;stroke:#868686;stroke-width:0.5;stroke-miterlimit:10;" d="M50.3,76.1c0,0-0.1-0.2,0.4-0.6"/>
	<path style="fill:none;stroke:#868686;stroke-width:0.5;stroke-miterlimit:10;" d="M48.3,77.8c0,0-1-0.1-0.9,0.4"/>
	<path style="fill:none;stroke:#868686;stroke-width:0.5;stroke-miterlimit:10;" d="M48.1,79.6c0,0,0.5,0.9,1.1,0.9
		c0,0,2.5-0.7,3.1-1.5c0,0-1.8,0.1-0.9-2.8c0.3-0.8-2.6,0.5-2.6,0.5C47.9,77.5,48.1,79.6,48.1,79.6c-1,0.6-1.8-0.1-1.8-0.1
		c-0.8-3.6,3.1-5.4,3.1-5.4"/>
	<path style="fill:none;stroke:#868686;stroke-width:0.5;stroke-miterlimit:10;" d="M51.3,76.6c0,0,1.1-0.3,1.8-1.8l1.1,0.2
		c0,0,0.1,1.2-0.4,1.2c0,0,0.7,2.2-1.6,2.9"/>
	<path style="fill:none;stroke:#868686;stroke-width:0.5;stroke-miterlimit:10;" d="M52,73.1c0,0,0.1,1.4,0.1,1.8"/>
	<path style="fill:none;stroke:#868686;stroke-width:0.5;stroke-miterlimit:10;" d="M48.9,80.5c0,0-0.1,4,1,5.4c0,0,1.3-2.3,2.7-2.6
		c0,0-0.3-4-0.3-4.1"/>
	<circle style="fill:none;stroke:#868686;stroke-width:0.5;stroke-miterlimit:10;" cx="51.9" cy="75.4" r="0.5"/>
	<path style="fill:none;stroke:#868686;stroke-width:0.5;stroke-miterlimit:10;" d="M59.7,76.3c0,0,2.2,0.2,2.5,0.5
		c0,0,0.7,0.8-0.2,1.1c0,0-1.8-0.2-2.6-0.6C59.4,77.2,59,76.4,59.7,76.3z"/>
	<path style="fill:none;stroke:#868686;stroke-width:0.5;stroke-miterlimit:10;" d="M50,85.8c0,0,3.9,2.2,6.2,0.8l2.7-2.4
		c0,0,0.2,1.1,0.5,1.5c0,0-1.5,0.6-0.6,1.8c0,0,1.5,0.1,1.4,1.4c0,0,4.6,2.5,5.6-1c0,0,1.9-0.4,2.1-1.8c0,0-1.4-0.6-1.8-1
		c-0.5-0.4-0.5-1.2-1.3-1l-0.1-0.8c0,0-1.7,0.3-1.7,0.6c0,0-0.1,0.7-0.1,1c0.1,0.3-0.9-0.3-0.9-0.4c-0.1-0.1-1.8,0.4-1.9,0.5
		c-0.1,0.1,0.1,0.7,0,0.9c0,0-0.1,0.3-0.5-0.1"/>
	<path style="fill:none;stroke:#868686;stroke-width:0.5;stroke-miterlimit:10;" d="M52.6,83.2c0,0,1.1,0.8,1.5-0.5
		c0.4-1.3-0.1,0-0.1,0s1.5-4.1,3.3-4.4c0,0,1.1-0.7,1.6,1.3c0,0,0.8,4.4,2.4,5"/>
	<path style="fill:none;stroke:#868686;stroke-width:0.5;stroke-miterlimit:10;" d="M58.8,79.7c0,0-1.6,0.6-1.5,0.9
		c0,0.3,1.2,1.9,1.6,3.6"/>
	<path style="fill:none;stroke:#868686;stroke-width:0.5;stroke-miterlimit:10;" d="M57.8,82.1c0,0-2.3,3.2-3.1,3.5"/>
	<path style="fill:none;stroke:#868686;stroke-width:0.5;stroke-miterlimit:10;" d="M59,79.7c0,0,1.5-2.6,2.9-1l0,0.7
		c0,0-0.6-0.4-1.2,0.8c0,0,1.4,2.3,1.7,4.1"/>
	<path style="fill:none;stroke:#868686;stroke-width:0.5;stroke-miterlimit:10;" d="M61.2,81.5c0,0-1.6,0.6-1.4,1.4"/>
	<path style="fill:none;stroke:#868686;stroke-width:0.5;stroke-miterlimit:10;" d="M61.8,79.5c0,0,1.2,3.6,2.2,4"/>
	<path style="fill:none;stroke:#868686;stroke-width:0.5;stroke-miterlimit:10;" d="M61.2,76.4c-0.3-0.8,1.2-2.4,1.2-2.4
		c-0.7-1.2-5.4-0.6-5.4-0.6c-0.8,0.3-2.4-0.3-2.4-0.3"/>
	<path style="fill:none;stroke:#868686;stroke-width:0.5;stroke-miterlimit:10;" d="M54.8,73.1c0,0-0.2,4.2-1.6,7.2
		c0,0,0.2,0.1,1.6,0.4"/>
	<path style="fill:none;stroke:#868686;stroke-width:0.5;stroke-miterlimit:10;" d="M59.7,78.6c0,0-1.4-0.2-0.5-0.8
		c0,0,2-0.4,2.9,0.3c0,0,0.1,0.5-0.2,0.6"/>
	<path style="fill:none;stroke:#868686;stroke-width:0.5;stroke-miterlimit:10;" d="M52.5,72.5c0,0,0.5,1.8,0.3,2.6"/>
	<path style="fill:none;stroke:#868686;stroke-width:0.5;stroke-miterlimit:10;" d="M52.1,73.7c0,0,0.2,0.1,0.7-0.2"/>
	<path style="fill:none;stroke:#868686;stroke-width:0.5;stroke-miterlimit:10;" d="M53,78.5c0,0,0,1,0,1.6"/>
	<path style="fill:none;stroke:#868686;stroke-width:0.5;stroke-miterlimit:10;" d="M52.4,79.9c0,0,0.4,0.2,0.8,0.3"/>
	<path style="fill:none;stroke:#868686;stroke-width:0.5;stroke-miterlimit:10;" d="M53.6,72.5c0,0,1.1,0.4,0.7,2.5"/>
	<path style="fill:none;stroke:#868686;stroke-width:0.5;stroke-miterlimit:10;" d="M60.8,86l0,0.6c0,0,1.5-0.1,1.9-0.6
		c0,0,0.2-0.4-0.3-0.4l-0.9,0.2"/>
	<path style="fill:none;stroke:#868686;stroke-width:0.5;stroke-miterlimit:10;" d="M63.6,84.7c0,0-0.3,0.4,0,0.5
		c0,0,1.3-0.1,1.6-0.4c0,0,0.3-0.6-0.9-0.3"/>
</g>
</svg>
