<?xml version="1.0" encoding="iso-8859-1"?>
<!-- Generator: Adobe Illustrator 16.0.0, SVG Export Plug-In . SVG Version: 6.00 Build 0)  -->
<!DOCTYPE svg PUBLIC "-//W3C//DTD SVG 1.1//EN" "http://www.w3.org/Graphics/SVG/1.1/DTD/svg11.dtd">
<svg version="1.1" id="Layer_1" xmlns="http://www.w3.org/2000/svg" xmlns:xlink="http://www.w3.org/1999/xlink" x="0px" y="0px"
	 width="100px" height="100px" viewBox="0 0 100 100" style="enable-background:new 0 0 100 100;" xml:space="preserve">
<g>
	<path style="fill:none;stroke:#9C9B9B;stroke-miterlimit:10;" d="M82.4,43.3c0,1.2-2.4,10.4-13.1,12.2l-40-0.1
		C17.6,53.1,17,43,17,41.8l-0.1-9.5c0.5-8.6,11.1-12.1,12.3-12.1h39.6c2.1-0.1,11.2,1.1,13.6,12.1L82.4,43.3z"/>
	<line style="fill:none;stroke:#9C9B9B;stroke-miterlimit:10;" x1="7.2" y1="38.6" x2="34.7" y2="38.6"/>
	<line style="fill:none;stroke:#9C9B9B;stroke-miterlimit:10;" x1="7.2" y1="38.6" x2="7.2" y2="67.6"/>
	<line style="fill:none;stroke:#9C9B9B;stroke-miterlimit:10;" x1="70.6" y1="38.9" x2="95.8" y2="38.9"/>
	<line style="fill:none;stroke:#9C9B9B;stroke-miterlimit:10;" x1="95.8" y1="38.9" x2="95.8" y2="67.6"/>
	<line style="fill:none;stroke:#9C9B9B;stroke-miterlimit:10;" x1="96.1" y1="67.5" x2="91.6" y2="67.5"/>
	<path style="fill:none;stroke:#9C9B9B;stroke-miterlimit:10;" d="M6.8,67.6l6.8,0c0,0,2.1-0.1,1.9-1.9l-2.4-7.5c0,0-0.1-1.8,1-0.6
		c0,0,0.5,0.5,0.9-0.5c0,0,1.1-1,1.5,0.2c0,0,0.5,0.5,1-0.3c0,0,1-0.9,1.3,0.8c0,0,0,0.1,0,0.1c0,0-0.1,2.1-0.9,3.8c0,0-1.1,2.5-1,3
		c0,0-0.8,2.8,1.4,2.7h56.3"/>
	<line style="fill:none;stroke:#9C9B9B;stroke-miterlimit:10;" x1="48.3" y1="62" x2="48.3" y2="72.8"/>
	<line style="fill:none;stroke:#9C9B9B;stroke-miterlimit:10;" x1="50.8" y1="64.3" x2="50.8" y2="70.6"/>
	<line style="fill:none;stroke:#9C9B9B;stroke-miterlimit:10;" x1="53.4" y1="62.1" x2="53.4" y2="72.7"/>
	<line style="fill:none;stroke:#9C9B9B;stroke-miterlimit:10;" x1="55.4" y1="64.4" x2="55.4" y2="70.7"/>
	<line style="fill:none;stroke:#9C9B9B;stroke-miterlimit:10;" x1="57.7" y1="63.7" x2="61.7" y2="63.7"/>
	<line style="fill:none;stroke:#9C9B9B;stroke-miterlimit:10;" x1="44.7" y1="62" x2="44.7" y2="66"/>
	<line style="fill:none;stroke:#9C9B9B;stroke-miterlimit:10;" x1="42.7" y1="64" x2="46.7" y2="64"/>
	<circle style="fill:none;stroke:#9C9B9B;stroke-miterlimit:10;" cx="83.3" cy="67" r="8.4"/>
	<g>
		<g>
			<line style="fill:none;stroke:#9C9B9B;stroke-width:0.25;stroke-miterlimit:10;" x1="83.5" y1="72" x2="81.4" y2="66.3"/>
			<g>
				<polygon style="fill:#9C9B9B;" points="82.3,66.5 80.6,64.3 80.9,67 				"/>
			</g>
		</g>
	</g>
	<line style="fill:none;stroke:#9C9B9B;stroke-miterlimit:10;" x1="76.7" y1="62.9" x2="78.5" y2="63.9"/>
	<line style="fill:none;stroke:#9C9B9B;stroke-miterlimit:10;" x1="78.8" y1="60.8" x2="79.9" y2="62.4"/>
	<line style="fill:none;stroke:#9C9B9B;stroke-miterlimit:10;" x1="82.3" y1="59.6" x2="82.5" y2="61.8"/>
	<line style="fill:none;stroke:#9C9B9B;stroke-miterlimit:10;" x1="86" y1="60.1" x2="85.2" y2="62"/>
	<line style="fill:none;stroke:#9C9B9B;stroke-miterlimit:10;" x1="89.1" y1="62.3" x2="87.3" y2="63.2"/>
	<path style="fill:none;stroke:#9C9B9B;stroke-miterlimit:10;" d="M13.9,69.7v-4.2c0,0,0.3-1.2-0.8-2.7c0,0-1.9-3.3-2.2-4.2
		c0,0-0.5-2.5,0.2-3.3c0,0,1.7-2,5.1-2c0,0,4.5,0,4.7,2.5c0,0,0.3,1.9,0.1,2.5c0,0-0.8,2-1.3,2.6c0,0-1.6,2.8-1.3,3.3v4.4
		c0,0-0.5,1.6-1.1,1.4C17.3,70.1,14.4,70.5,13.9,69.7z"/>
	<rect x="34.7" y="24.8" style="fill:none;stroke:#9C9B9B;stroke-miterlimit:10;" width="1" height="24.7"/>
	<polygon style="fill:none;stroke:#9C9B9B;stroke-miterlimit:10;" points="70.5,53.8 57.5,46.3 57.5,23.1 70.7,30.7 	"/>
	<g>
		<circle style="fill:none;stroke:#9C9B9B;stroke-miterlimit:10;" cx="61.9" cy="34" r="1.7"/>
		<line style="fill:none;stroke:#9C9B9B;stroke-miterlimit:10;" x1="61.1" y1="34" x2="62.7" y2="34"/>
	</g>
	<g>
		<circle style="fill:none;stroke:#9C9B9B;stroke-miterlimit:10;" cx="41.2" cy="35.7" r="1.7"/>
		<line style="fill:none;stroke:#9C9B9B;stroke-miterlimit:10;" x1="40.4" y1="35.8" x2="42" y2="35.8"/>
	</g>
	<g>
		<circle style="fill:none;stroke:#9C9B9B;stroke-miterlimit:10;" cx="65.7" cy="38.3" r="1.7"/>
		<line style="fill:none;stroke:#9C9B9B;stroke-miterlimit:10;" x1="64.9" y1="38.4" x2="66.5" y2="38.4"/>
	</g>
	<g>
		<circle style="fill:none;stroke:#9C9B9B;stroke-miterlimit:10;" cx="63.3" cy="45.9" r="1.7"/>
		<line style="fill:none;stroke:#9C9B9B;stroke-miterlimit:10;" x1="62.6" y1="46" x2="64.2" y2="46"/>
	</g>
	<g>
		<g>
			<line style="fill:none;stroke:#9C9B9B;stroke-width:0.25;stroke-miterlimit:10;" x1="44.8" y1="35.8" x2="49.3" y2="35.8"/>
			<g>
				<polygon style="fill:#9C9B9B;" points="48.8,36.5 51.5,35.8 48.8,35 				"/>
			</g>
		</g>
	</g>
</g>
</svg>
