<?xml version="1.0" encoding="iso-8859-1"?>
<!-- Generator: Adobe Illustrator 16.0.0, SVG Export Plug-In . SVG Version: 6.00 Build 0)  -->
<!DOCTYPE svg PUBLIC "-//W3C//DTD SVG 1.1//EN" "http://www.w3.org/Graphics/SVG/1.1/DTD/svg11.dtd">
<svg version="1.1" id="Layer_1" xmlns="http://www.w3.org/2000/svg" xmlns:xlink="http://www.w3.org/1999/xlink" x="0px" y="0px"
	 width="100px" height="100px" viewBox="0 0 100 100" style="enable-background:new 0 0 100 100;" xml:space="preserve">
<g>
	<path style="fill:none;stroke:#868686;stroke-miterlimit:10;" d="M47.7,54.5C52.9,67.2,60.5,76,64.6,74.3c4.1-1.7,3.2-13.3-2-25.9
		c-5.2-12.6-12.8-21.5-16.9-19.8C41.6,30.3,42.5,41.9,47.7,54.5z"/>
	
		<ellipse transform="matrix(-0.9182 0.3961 -0.3961 -0.9182 129.8521 75.1956)" style="fill:none;stroke:#868686;stroke-miterlimit:10;" cx="57.2" cy="51" rx="1.9" ry="4.7"/>
	<line style="fill:none;stroke:#868686;stroke-miterlimit:10;" x1="55.3" y1="46.7" x2="45.2" y2="47.4"/>
	<line style="fill:none;stroke:#868686;stroke-miterlimit:10;" x1="58.6" y1="55.5" x2="50" y2="59.7"/>
	<path style="fill:none;stroke:#868686;stroke-miterlimit:10;" d="M43.5,32c0,0-11.3,20.9-38.9,31.8c0,0,1,6.3,4.5,12.2
		c0,0,20.6-9.8,53.6-1.5"/>
	<path style="fill:none;stroke:#868686;stroke-miterlimit:10;" d="M18.4,56.7c0,0-0.9,5.8,5.3,15.5"/>
	<path style="fill:none;stroke:#868686;stroke-miterlimit:10;" d="M5,65.7c0,0-8.9,7.2,2.9,8.2"/>
	<polygon style="fill:none;stroke:#868686;stroke-miterlimit:10;" points="23,97.7 31.2,95.1 24.6,72 14.2,74.3 	"/>
	<polygon style="fill:none;stroke:#868686;stroke-miterlimit:10;" points="31.2,95.1 33.8,92.8 28.1,71.6 24.6,72 	"/>
</g>
<path style="fill:none;stroke:#9C9B9B;stroke-miterlimit:10;" d="M74.6,54.7c0,0,4-9.5-7.3-17.3C67.3,37.3,73.6,42.9,74.6,54.7z"/>
<path style="fill:none;stroke:#9C9B9B;stroke-miterlimit:10;" d="M84.9,54.2c0,0,6.1-14.3-10.9-25.9C73.9,28.3,83.4,36.7,84.9,54.2z
	"/>
<path style="fill:none;stroke:#9C9B9B;stroke-miterlimit:10;" d="M94.2,54.2c0,0,8.7-20.4-15.6-37.1C78.6,17.2,92.1,29.1,94.2,54.2z
	"/>
</svg>
