<?xml version="1.0" encoding="iso-8859-1"?>
<!-- Generator: Adobe Illustrator 16.0.0, SVG Export Plug-In . SVG Version: 6.00 Build 0)  -->
<!DOCTYPE svg PUBLIC "-//W3C//DTD SVG 1.1//EN" "http://www.w3.org/Graphics/SVG/1.1/DTD/svg11.dtd">
<svg version="1.1" id="Layer_1" xmlns="http://www.w3.org/2000/svg" xmlns:xlink="http://www.w3.org/1999/xlink" x="0px" y="0px"
	 width="100px" height="100px" viewBox="0 0 100 100" style="enable-background:new 0 0 100 100;" xml:space="preserve">
<line style="fill:none;stroke:#868686;stroke-miterlimit:10;" x1="8.5" y1="6.2" x2="92" y2="6.2"/>
<line style="fill:none;stroke:#868686;stroke-miterlimit:10;" x1="8.5" y1="96.2" x2="92" y2="96.2"/>
<g>
	<circle style="fill:none;stroke:#868686;stroke-miterlimit:10;" cx="30.2" cy="30.1" r="8.1"/>
	<circle style="fill:none;stroke:#868686;stroke-miterlimit:10;" cx="30.3" cy="30.3" r="2"/>
</g>
<g>
	<circle style="fill:none;stroke:#868686;stroke-miterlimit:10;" cx="46.2" cy="73.3" r="8.1"/>
	<circle style="fill:none;stroke:#868686;stroke-miterlimit:10;" cx="46.4" cy="73.4" r="2"/>
</g>
<g>
	<circle style="fill:none;stroke:#868686;stroke-miterlimit:10;" cx="62" cy="30.7" r="8.1"/>
	<circle style="fill:none;stroke:#868686;stroke-miterlimit:10;" cx="62.2" cy="30.8" r="2"/>
</g>
<g>
	<line style="fill:none;stroke:#868686;stroke-miterlimit:10;" x1="30.1" y1="6.6" x2="30.1" y2="8.5"/>
	<line style="fill:none;stroke:#868686;stroke-miterlimit:10;" x1="30.3" y1="19.8" x2="30.3" y2="21.9"/>
	<line style="fill:none;stroke:#868686;stroke-miterlimit:10;" x1="30.1" y1="8.4" x2="32.8" y2="9.8"/>
	<line style="fill:none;stroke:#868686;stroke-miterlimit:10;" x1="32.9" y1="9.6" x2="28.2" y2="11.1"/>
	<line style="fill:none;stroke:#868686;stroke-miterlimit:10;" x1="27.6" y1="11.1" x2="32.8" y2="12.9"/>
	<line style="fill:none;stroke:#868686;stroke-miterlimit:10;" x1="32.8" y1="12.6" x2="28.1" y2="14.2"/>
	<line style="fill:none;stroke:#868686;stroke-miterlimit:10;" x1="27.5" y1="14.2" x2="32.7" y2="15.9"/>
	<line style="fill:none;stroke:#868686;stroke-miterlimit:10;" x1="32.8" y1="15.7" x2="28.1" y2="17.2"/>
	<line style="fill:none;stroke:#868686;stroke-miterlimit:10;" x1="27.5" y1="17.2" x2="32.7" y2="19"/>
	<line style="fill:none;stroke:#868686;stroke-miterlimit:10;" x1="32.8" y1="18.8" x2="30.2" y2="19.9"/>
</g>
<g>
	<line style="fill:none;stroke:#868686;stroke-miterlimit:10;" x1="62.1" y1="6.6" x2="62.1" y2="8.6"/>
	<line style="fill:none;stroke:#868686;stroke-miterlimit:10;" x1="62.3" y1="20.4" x2="62.3" y2="22.6"/>
	<line style="fill:none;stroke:#868686;stroke-miterlimit:10;" x1="62.1" y1="8.5" x2="64.8" y2="9.9"/>
	<line style="fill:none;stroke:#868686;stroke-miterlimit:10;" x1="64.9" y1="9.7" x2="60.2" y2="11.3"/>
	<line style="fill:none;stroke:#868686;stroke-miterlimit:10;" x1="59.6" y1="11.3" x2="64.8" y2="13.2"/>
	<line style="fill:none;stroke:#868686;stroke-miterlimit:10;" x1="64.8" y1="12.9" x2="60.1" y2="14.6"/>
	<line style="fill:none;stroke:#868686;stroke-miterlimit:10;" x1="59.5" y1="14.5" x2="64.7" y2="16.4"/>
	<line style="fill:none;stroke:#868686;stroke-miterlimit:10;" x1="64.8" y1="16.1" x2="60.1" y2="17.7"/>
	<line style="fill:none;stroke:#868686;stroke-miterlimit:10;" x1="59.5" y1="17.7" x2="64.7" y2="19.6"/>
	<line style="fill:none;stroke:#868686;stroke-miterlimit:10;" x1="64.8" y1="19.4" x2="62.2" y2="20.6"/>
</g>
<line style="fill:none;stroke:#868686;stroke-miterlimit:10;" x1="22.2" y1="28.5" x2="22.2" y2="96.2"/>
<rect x="62" y="72.2" style="fill:none;stroke:#868686;stroke-miterlimit:10;" width="16" height="14"/>
<g>
	<line style="fill:none;stroke:#868686;stroke-miterlimit:10;" x1="38.1" y1="66.5" x2="38.1" y2="72.6"/>
	<line style="fill:none;stroke:#868686;stroke-miterlimit:10;" x1="38.1" y1="39.1" x2="40.9" y2="40.6"/>
	<line style="fill:none;stroke:#868686;stroke-miterlimit:10;" x1="40.8" y1="40.3" x2="36.1" y2="42"/>
	<line style="fill:none;stroke:#868686;stroke-miterlimit:10;" x1="35.5" y1="41.9" x2="40.7" y2="43.8"/>
	<line style="fill:none;stroke:#868686;stroke-miterlimit:10;" x1="40.8" y1="43.5" x2="36.1" y2="45.1"/>
	<line style="fill:none;stroke:#868686;stroke-miterlimit:10;" x1="35.5" y1="45.1" x2="40.7" y2="46.9"/>
	<line style="fill:none;stroke:#868686;stroke-miterlimit:10;" x1="40.8" y1="46.6" x2="36.1" y2="48.2"/>
	<line style="fill:none;stroke:#868686;stroke-miterlimit:10;" x1="35.5" y1="48.2" x2="40.7" y2="50"/>
	<line style="fill:none;stroke:#868686;stroke-miterlimit:10;" x1="40.8" y1="49.7" x2="36.1" y2="51.3"/>
	<line style="fill:none;stroke:#868686;stroke-miterlimit:10;" x1="35.5" y1="51.3" x2="40.7" y2="53.1"/>
	<line style="fill:none;stroke:#868686;stroke-miterlimit:10;" x1="40.8" y1="52.9" x2="36.1" y2="54.5"/>
	<line style="fill:none;stroke:#868686;stroke-miterlimit:10;" x1="35.5" y1="54.5" x2="40.7" y2="56.3"/>
	<line style="fill:none;stroke:#868686;stroke-miterlimit:10;" x1="40.8" y1="56" x2="36.1" y2="57.6"/>
	<line style="fill:none;stroke:#868686;stroke-miterlimit:10;" x1="35.5" y1="57.6" x2="40.7" y2="59.4"/>
	<line style="fill:none;stroke:#868686;stroke-miterlimit:10;" x1="40.8" y1="59.1" x2="36.1" y2="60.8"/>
	<line style="fill:none;stroke:#868686;stroke-miterlimit:10;" x1="35.5" y1="60.8" x2="40.7" y2="62.6"/>
	<line style="fill:none;stroke:#868686;stroke-miterlimit:10;" x1="40.8" y1="62.3" x2="36.1" y2="63.9"/>
	<line style="fill:none;stroke:#868686;stroke-miterlimit:10;" x1="40.8" y1="65.4" x2="37.9" y2="66.9"/>
	<line style="fill:none;stroke:#868686;stroke-miterlimit:10;" x1="35.5" y1="63.9" x2="40.7" y2="65.7"/>
	<line style="fill:none;stroke:#868686;stroke-miterlimit:10;" x1="38.2" y1="29.8" x2="38.2" y2="39.6"/>
</g>
<g>
	<line style="fill:none;stroke:#868686;stroke-miterlimit:10;" x1="54" y1="65.8" x2="54" y2="71.9"/>
	<line style="fill:none;stroke:#868686;stroke-miterlimit:10;" x1="54" y1="38.5" x2="56.7" y2="39.9"/>
	<line style="fill:none;stroke:#868686;stroke-miterlimit:10;" x1="56.7" y1="39.7" x2="52" y2="41.3"/>
	<line style="fill:none;stroke:#868686;stroke-miterlimit:10;" x1="51.4" y1="41.3" x2="56.6" y2="43.1"/>
	<line style="fill:none;stroke:#868686;stroke-miterlimit:10;" x1="56.7" y1="42.8" x2="52" y2="44.4"/>
	<line style="fill:none;stroke:#868686;stroke-miterlimit:10;" x1="51.4" y1="44.4" x2="56.6" y2="46.2"/>
	<line style="fill:none;stroke:#868686;stroke-miterlimit:10;" x1="56.7" y1="45.9" x2="52" y2="47.5"/>
	<line style="fill:none;stroke:#868686;stroke-miterlimit:10;" x1="51.4" y1="47.5" x2="56.6" y2="49.4"/>
	<line style="fill:none;stroke:#868686;stroke-miterlimit:10;" x1="56.7" y1="49" x2="52" y2="50.6"/>
	<line style="fill:none;stroke:#868686;stroke-miterlimit:10;" x1="51.4" y1="50.6" x2="56.6" y2="52.4"/>
	<line style="fill:none;stroke:#868686;stroke-miterlimit:10;" x1="56.7" y1="52.2" x2="52" y2="53.8"/>
	<line style="fill:none;stroke:#868686;stroke-miterlimit:10;" x1="51.4" y1="53.8" x2="56.6" y2="55.6"/>
	<line style="fill:none;stroke:#868686;stroke-miterlimit:10;" x1="56.7" y1="55.3" x2="52" y2="56.9"/>
	<line style="fill:none;stroke:#868686;stroke-miterlimit:10;" x1="51.4" y1="56.9" x2="56.6" y2="58.8"/>
	<line style="fill:none;stroke:#868686;stroke-miterlimit:10;" x1="56.7" y1="58.5" x2="52" y2="60.1"/>
	<line style="fill:none;stroke:#868686;stroke-miterlimit:10;" x1="51.4" y1="60.1" x2="56.6" y2="61.9"/>
	<line style="fill:none;stroke:#868686;stroke-miterlimit:10;" x1="56.7" y1="61.6" x2="52" y2="63.2"/>
	<line style="fill:none;stroke:#868686;stroke-miterlimit:10;" x1="56.7" y1="64.7" x2="53.8" y2="66.2"/>
	<line style="fill:none;stroke:#868686;stroke-miterlimit:10;" x1="51.4" y1="63.2" x2="56.6" y2="65"/>
	<line style="fill:none;stroke:#868686;stroke-miterlimit:10;" x1="54.1" y1="29.1" x2="54.1" y2="38.9"/>
</g>
<g>
	<line style="fill:none;stroke:#868686;stroke-miterlimit:10;" x1="70" y1="65.8" x2="70" y2="71.9"/>
	<line style="fill:none;stroke:#868686;stroke-miterlimit:10;" x1="70" y1="38.5" x2="72.7" y2="39.9"/>
	<line style="fill:none;stroke:#868686;stroke-miterlimit:10;" x1="72.7" y1="39.7" x2="68" y2="41.3"/>
	<line style="fill:none;stroke:#868686;stroke-miterlimit:10;" x1="67.4" y1="41.3" x2="72.6" y2="43.1"/>
	<line style="fill:none;stroke:#868686;stroke-miterlimit:10;" x1="72.7" y1="42.8" x2="68" y2="44.4"/>
	<line style="fill:none;stroke:#868686;stroke-miterlimit:10;" x1="67.4" y1="44.4" x2="72.6" y2="46.2"/>
	<line style="fill:none;stroke:#868686;stroke-miterlimit:10;" x1="72.7" y1="45.9" x2="68" y2="47.5"/>
	<line style="fill:none;stroke:#868686;stroke-miterlimit:10;" x1="67.4" y1="47.5" x2="72.6" y2="49.4"/>
	<line style="fill:none;stroke:#868686;stroke-miterlimit:10;" x1="72.7" y1="49" x2="68" y2="50.6"/>
	<line style="fill:none;stroke:#868686;stroke-miterlimit:10;" x1="67.4" y1="50.6" x2="72.6" y2="52.4"/>
	<line style="fill:none;stroke:#868686;stroke-miterlimit:10;" x1="72.7" y1="52.2" x2="68" y2="53.8"/>
	<line style="fill:none;stroke:#868686;stroke-miterlimit:10;" x1="67.4" y1="53.8" x2="72.6" y2="55.6"/>
	<line style="fill:none;stroke:#868686;stroke-miterlimit:10;" x1="72.7" y1="55.3" x2="68" y2="56.9"/>
	<line style="fill:none;stroke:#868686;stroke-miterlimit:10;" x1="67.4" y1="56.9" x2="72.6" y2="58.8"/>
	<line style="fill:none;stroke:#868686;stroke-miterlimit:10;" x1="72.7" y1="58.5" x2="68" y2="60.1"/>
	<line style="fill:none;stroke:#868686;stroke-miterlimit:10;" x1="67.4" y1="60.1" x2="72.6" y2="61.9"/>
	<line style="fill:none;stroke:#868686;stroke-miterlimit:10;" x1="72.7" y1="61.6" x2="68" y2="63.2"/>
	<line style="fill:none;stroke:#868686;stroke-miterlimit:10;" x1="72.7" y1="64.7" x2="69.8" y2="66.2"/>
	<line style="fill:none;stroke:#868686;stroke-miterlimit:10;" x1="67.4" y1="63.2" x2="72.6" y2="65"/>
	<line style="fill:none;stroke:#868686;stroke-miterlimit:10;" x1="70.1" y1="29.1" x2="70.1" y2="38.9"/>
</g>
</svg>
