<?xml version="1.0" encoding="iso-8859-1"?>
<!-- Generator: Adobe Illustrator 16.0.0, SVG Export Plug-In . SVG Version: 6.00 Build 0)  -->
<!DOCTYPE svg PUBLIC "-//W3C//DTD SVG 1.1//EN" "http://www.w3.org/Graphics/SVG/1.1/DTD/svg11.dtd">
<svg version="1.1" id="Layer_1" xmlns="http://www.w3.org/2000/svg" xmlns:xlink="http://www.w3.org/1999/xlink" x="0px" y="0px"
	 width="100px" height="100px" viewBox="0 0 100 100" style="enable-background:new 0 0 100 100;" xml:space="preserve">
<g>
	<line style="fill:none;stroke:#868686;stroke-miterlimit:10;" x1="2.3" y1="53.7" x2="90.3" y2="53.7"/>
	<line style="fill:none;stroke:#868686;stroke-miterlimit:10;" x1="11.3" y1="68.7" x2="90.3" y2="68.7"/>
	<line style="fill:none;stroke:#868686;stroke-miterlimit:10;" x1="2.9" y1="53.3" x2="2" y2="57.1"/>
	<line style="fill:none;stroke:#868686;stroke-miterlimit:10;" x1="2" y1="57" x2="2" y2="68.7"/>
	<line style="fill:none;stroke:#868686;stroke-miterlimit:10;" x1="2" y1="68.5" x2="6.3" y2="88"/>
	<line style="fill:none;stroke:#868686;stroke-miterlimit:10;" x1="11.3" y1="68.2" x2="11.3" y2="92.7"/>
	<line style="fill:none;stroke:#868686;stroke-miterlimit:10;" x1="6.1" y1="87.8" x2="11.1" y2="92.3"/>
	<line style="fill:none;stroke:#868686;stroke-miterlimit:10;" x1="26.4" y1="68.8" x2="26.4" y2="93"/>
	<line style="fill:none;stroke:#868686;stroke-miterlimit:10;" x1="26.6" y1="92.6" x2="31.1" y2="89.2"/>
	<line style="fill:none;stroke:#868686;stroke-miterlimit:10;" x1="30.9" y1="89.5" x2="33.9" y2="77.5"/>
	<line style="fill:none;stroke:#868686;stroke-miterlimit:10;" x1="33.5" y1="77.5" x2="73.7" y2="77.5"/>
	<line style="fill:none;stroke:#868686;stroke-miterlimit:10;" x1="73.2" y1="77.5" x2="73.2" y2="68.7"/>
	<line style="fill:none;stroke:#868686;stroke-miterlimit:10;" x1="43.6" y1="53.7" x2="43.6" y2="50.7"/>
	<line style="fill:none;stroke:#868686;stroke-miterlimit:10;" x1="43.1" y1="50.7" x2="77.3" y2="50.7"/>
	<line style="fill:none;stroke:#868686;stroke-miterlimit:10;" x1="76.8" y1="50.7" x2="76.8" y2="53.7"/>
	<line style="fill:none;stroke:#868686;stroke-width:0.5;stroke-miterlimit:10;" x1="15.9" y1="68.5" x2="15.9" y2="62.5"/>
	<line style="fill:none;stroke:#868686;stroke-width:0.5;stroke-miterlimit:10;" x1="18.2" y1="68.4" x2="18.2" y2="66.2"/>
	<line style="fill:none;stroke:#868686;stroke-width:0.5;stroke-miterlimit:10;" x1="20.2" y1="68.4" x2="20.2" y2="66.2"/>
	<line style="fill:none;stroke:#868686;stroke-width:0.5;stroke-miterlimit:10;" x1="22.2" y1="68.4" x2="22.2" y2="66.2"/>
	<line style="fill:none;stroke:#868686;stroke-width:0.5;stroke-miterlimit:10;" x1="24.2" y1="68.4" x2="24.2" y2="66.2"/>
	<line style="fill:none;stroke:#868686;stroke-width:0.5;stroke-miterlimit:10;" x1="25.9" y1="68.5" x2="25.9" y2="62.5"/>
	<line style="fill:none;stroke:#868686;stroke-width:0.5;stroke-miterlimit:10;" x1="28.2" y1="68.4" x2="28.2" y2="66.2"/>
	<line style="fill:none;stroke:#868686;stroke-width:0.5;stroke-miterlimit:10;" x1="30.2" y1="68.4" x2="30.2" y2="66.2"/>
	<line style="fill:none;stroke:#868686;stroke-width:0.5;stroke-miterlimit:10;" x1="32.2" y1="68.4" x2="32.2" y2="66.2"/>
	<line style="fill:none;stroke:#868686;stroke-width:0.5;stroke-miterlimit:10;" x1="34.2" y1="68.4" x2="34.2" y2="66.2"/>
	<line style="fill:none;stroke:#868686;stroke-width:0.5;stroke-miterlimit:10;" x1="35.9" y1="68.5" x2="35.9" y2="62.5"/>
	<line style="fill:none;stroke:#868686;stroke-width:0.5;stroke-miterlimit:10;" x1="38.2" y1="68.4" x2="38.2" y2="66.2"/>
	<line style="fill:none;stroke:#868686;stroke-width:0.5;stroke-miterlimit:10;" x1="40.2" y1="68.4" x2="40.2" y2="66.2"/>
	<line style="fill:none;stroke:#868686;stroke-width:0.5;stroke-miterlimit:10;" x1="42.2" y1="68.4" x2="42.2" y2="66.2"/>
	<line style="fill:none;stroke:#868686;stroke-width:0.5;stroke-miterlimit:10;" x1="44.2" y1="68.4" x2="44.2" y2="66.2"/>
	<line style="fill:none;stroke:#868686;stroke-width:0.5;stroke-miterlimit:10;" x1="45.9" y1="68.5" x2="45.9" y2="62.5"/>
	<line style="fill:none;stroke:#868686;stroke-width:0.5;stroke-miterlimit:10;" x1="48.2" y1="68.4" x2="48.2" y2="66.2"/>
	<line style="fill:none;stroke:#868686;stroke-width:0.5;stroke-miterlimit:10;" x1="50.2" y1="68.4" x2="50.2" y2="66.2"/>
	<line style="fill:none;stroke:#868686;stroke-width:0.5;stroke-miterlimit:10;" x1="52.2" y1="68.4" x2="52.2" y2="66.2"/>
	<line style="fill:none;stroke:#868686;stroke-width:0.5;stroke-miterlimit:10;" x1="54.2" y1="68.4" x2="54.2" y2="66.2"/>
	<line style="fill:none;stroke:#868686;stroke-width:0.5;stroke-miterlimit:10;" x1="55.9" y1="68.5" x2="55.9" y2="62.5"/>
	<line style="fill:none;stroke:#868686;stroke-width:0.5;stroke-miterlimit:10;" x1="58.2" y1="68.4" x2="58.2" y2="66.2"/>
	<line style="fill:none;stroke:#868686;stroke-width:0.5;stroke-miterlimit:10;" x1="60.2" y1="68.4" x2="60.2" y2="66.2"/>
	<line style="fill:none;stroke:#868686;stroke-width:0.5;stroke-miterlimit:10;" x1="62.2" y1="68.4" x2="62.2" y2="66.2"/>
	<line style="fill:none;stroke:#868686;stroke-width:0.5;stroke-miterlimit:10;" x1="64.2" y1="68.4" x2="64.2" y2="66.2"/>
	<line style="fill:none;stroke:#868686;stroke-width:0.5;stroke-miterlimit:10;" x1="65.9" y1="68.5" x2="65.9" y2="62.5"/>
	<line style="fill:none;stroke:#868686;stroke-width:0.5;stroke-miterlimit:10;" x1="68.2" y1="68.4" x2="68.2" y2="66.2"/>
	<line style="fill:none;stroke:#868686;stroke-width:0.5;stroke-miterlimit:10;" x1="70.2" y1="68.4" x2="70.2" y2="66.2"/>
	<line style="fill:none;stroke:#868686;stroke-width:0.5;stroke-miterlimit:10;" x1="72.2" y1="68.4" x2="72.2" y2="66.2"/>
	<line style="fill:none;stroke:#868686;stroke-width:0.5;stroke-miterlimit:10;" x1="74.2" y1="68.4" x2="74.2" y2="66.2"/>
	<line style="fill:none;stroke:#868686;stroke-width:0.5;stroke-miterlimit:10;" x1="31.4" y1="69" x2="31.4" y2="73"/>
	<line style="fill:none;stroke:#868686;stroke-width:0.5;stroke-miterlimit:10;" x1="33" y1="69.1" x2="33" y2="70.8"/>
	<line style="fill:none;stroke:#868686;stroke-width:0.5;stroke-miterlimit:10;" x1="34.6" y1="69" x2="34.6" y2="73"/>
	<line style="fill:none;stroke:#868686;stroke-width:0.5;stroke-miterlimit:10;" x1="36" y1="69.2" x2="36" y2="70.9"/>
	<line style="fill:none;stroke:#868686;stroke-width:0.5;stroke-miterlimit:10;" x1="37.9" y1="69" x2="37.9" y2="73"/>
	<line style="fill:none;stroke:#868686;stroke-width:0.5;stroke-miterlimit:10;" x1="39.6" y1="69.1" x2="39.6" y2="70.8"/>
	<line style="fill:none;stroke:#868686;stroke-width:0.5;stroke-miterlimit:10;" x1="41.2" y1="69" x2="41.2" y2="73"/>
	<line style="fill:none;stroke:#868686;stroke-width:0.5;stroke-miterlimit:10;" x1="42.6" y1="69.2" x2="42.6" y2="70.9"/>
	<line style="fill:none;stroke:#868686;stroke-width:0.5;stroke-miterlimit:10;" x1="44.5" y1="69" x2="44.5" y2="73"/>
	<line style="fill:none;stroke:#868686;stroke-width:0.5;stroke-miterlimit:10;" x1="46.2" y1="69.1" x2="46.2" y2="70.8"/>
	<line style="fill:none;stroke:#868686;stroke-width:0.5;stroke-miterlimit:10;" x1="47.8" y1="69" x2="47.8" y2="73"/>
	<line style="fill:none;stroke:#868686;stroke-width:0.5;stroke-miterlimit:10;" x1="49.2" y1="69.2" x2="49.2" y2="70.9"/>
	<line style="fill:none;stroke:#868686;stroke-width:0.5;stroke-miterlimit:10;" x1="51.1" y1="69" x2="51.1" y2="73"/>
	<line style="fill:none;stroke:#868686;stroke-width:0.5;stroke-miterlimit:10;" x1="52.8" y1="69.1" x2="52.8" y2="70.8"/>
	<line style="fill:none;stroke:#868686;stroke-width:0.5;stroke-miterlimit:10;" x1="54.4" y1="69" x2="54.4" y2="73"/>
	<line style="fill:none;stroke:#868686;stroke-width:0.5;stroke-miterlimit:10;" x1="55.8" y1="69.2" x2="55.8" y2="70.9"/>
	<line style="fill:none;stroke:#868686;stroke-width:0.5;stroke-miterlimit:10;" x1="57.7" y1="69" x2="57.7" y2="73"/>
	<line style="fill:none;stroke:#868686;stroke-width:0.5;stroke-miterlimit:10;" x1="59.3" y1="69.1" x2="59.3" y2="70.8"/>
	<line style="fill:none;stroke:#868686;stroke-width:0.5;stroke-miterlimit:10;" x1="61" y1="69" x2="61" y2="73"/>
	<line style="fill:none;stroke:#868686;stroke-width:0.5;stroke-miterlimit:10;" x1="62.4" y1="69.2" x2="62.4" y2="70.9"/>
	<line style="fill:none;stroke:#868686;stroke-width:0.5;stroke-miterlimit:10;" x1="64.3" y1="69" x2="64.3" y2="73"/>
	<line style="fill:none;stroke:#868686;stroke-width:0.5;stroke-miterlimit:10;" x1="65.9" y1="69.1" x2="65.9" y2="70.8"/>
	<line style="fill:none;stroke:#868686;stroke-width:0.5;stroke-miterlimit:10;" x1="67.6" y1="69" x2="67.6" y2="73"/>
	<line style="fill:none;stroke:#868686;stroke-width:0.5;stroke-miterlimit:10;" x1="68.9" y1="69.2" x2="68.9" y2="70.9"/>
</g>
<g>
	<g>
		<g>
			<g>
				<path style="fill:none;stroke:#868686;stroke-miterlimit:10;" d="M92.3,29.6c-6,0-10.9-3.9-10.9-8.8"/>
				<path style="fill:none;stroke:#868686;stroke-miterlimit:10;" d="M92.3,12.2c-6,0-10.9,3.9-10.9,8.7"/>
			</g>
			<g>
				<path style="fill:none;stroke:#868686;stroke-miterlimit:10;" d="M92.5,33.7c-8.6,0-15.6-5.9-15.6-13.1"/>
				<path style="fill:none;stroke:#868686;stroke-miterlimit:10;" d="M92.5,7.9c-8.6,0-15.6,5.8-15.6,13"/>
			</g>
			<line style="fill:none;stroke:#868686;stroke-miterlimit:10;" x1="96.7" y1="7.7" x2="96.7" y2="12.5"/>
			<line style="fill:none;stroke:#868686;stroke-miterlimit:10;" x1="96.6" y1="29.1" x2="96.6" y2="33.8"/>
			<line style="fill:none;stroke:#868686;stroke-miterlimit:10;" x1="92.1" y1="29.6" x2="96.8" y2="29.6"/>
			<line style="fill:none;stroke:#868686;stroke-miterlimit:10;" x1="92.2" y1="33.7" x2="96.8" y2="33.7"/>
			<line style="fill:none;stroke:#868686;stroke-miterlimit:10;" x1="92.3" y1="7.9" x2="96.9" y2="7.9"/>
			<line style="fill:none;stroke:#868686;stroke-miterlimit:10;" x1="92.2" y1="12.2" x2="96.9" y2="12.2"/>
		</g>
		<g>
			<line style="fill:none;stroke:#868686;stroke-miterlimit:10;" x1="92.7" y1="33.7" x2="92.7" y2="41.8"/>
			<line style="fill:none;stroke:#868686;stroke-miterlimit:10;" x1="96.6" y1="33.8" x2="96.6" y2="41.7"/>
			<line style="fill:none;stroke:#868686;stroke-miterlimit:10;" x1="92.4" y1="41.8" x2="97.1" y2="41.8"/>
			<line style="fill:none;stroke:#868686;stroke-miterlimit:10;" x1="92.7" y1="41.9" x2="91.4" y2="46.8"/>
			<line style="fill:none;stroke:#868686;stroke-miterlimit:10;" x1="96.6" y1="42" x2="97.6" y2="46.8"/>
			<line style="fill:none;stroke:#868686;stroke-miterlimit:10;" x1="91.2" y1="46.9" x2="97.9" y2="46.9"/>
			<rect x="91.4" y="46.9" style="fill:none;stroke:#868686;stroke-miterlimit:10;" width="6.2" height="6.2"/>
			<rect x="91.5" y="68.5" style="fill:none;stroke:#868686;stroke-miterlimit:10;" width="6.2" height="1.3"/>
			<rect x="93.4" y="69.9" style="fill:none;stroke:#868686;stroke-miterlimit:10;" width="2.3" height="1.3"/>
			<rect x="90.6" y="53.2" style="fill:none;stroke:#868686;stroke-miterlimit:10;" width="7.9" height="15.2"/>
			<rect x="92.5" y="71.2" style="fill:none;stroke:#868686;stroke-miterlimit:10;" width="4.2" height="6.4"/>
			<path style="fill:none;stroke:#868686;stroke-miterlimit:10;" d="M93.4,77.7c0,0,1.2,2,2.3,0"/>
		</g>
		<rect x="92.8" y="12.3" style="fill:none;stroke:#868686;stroke-miterlimit:10;" width="2.7" height="3"/>
		<rect x="92.9" y="23.5" style="fill:none;stroke:#868686;stroke-miterlimit:10;" width="2.7" height="5.9"/>
	</g>
	<line style="fill:none;stroke:#868686;stroke-width:0.25;stroke-miterlimit:10;" x1="94.7" y1="35.1" x2="94.7" y2="40.7"/>
	<line style="fill:none;stroke:#868686;stroke-width:0.25;stroke-miterlimit:10;" x1="94.7" y1="35.3" x2="95.5" y2="35.3"/>
	<line style="fill:none;stroke:#868686;stroke-width:0.25;stroke-miterlimit:10;" x1="94.7" y1="36.3" x2="93.9" y2="36.3"/>
	<line style="fill:none;stroke:#868686;stroke-width:0.25;stroke-miterlimit:10;" x1="94.7" y1="37.3" x2="95.5" y2="37.3"/>
	<line style="fill:none;stroke:#868686;stroke-width:0.25;stroke-miterlimit:10;" x1="94.7" y1="38.4" x2="93.9" y2="38.4"/>
	<line style="fill:none;stroke:#868686;stroke-width:0.25;stroke-miterlimit:10;" x1="94.7" y1="39.3" x2="95.5" y2="39.3"/>
	<line style="fill:none;stroke:#868686;stroke-width:0.25;stroke-miterlimit:10;" x1="94.7" y1="40.4" x2="93.9" y2="40.4"/>
	<line style="fill:none;stroke:#868686;stroke-width:0.25;stroke-miterlimit:10;" x1="93.1" y1="47.2" x2="93.1" y2="51"/>
	<line style="fill:none;stroke:#868686;stroke-width:0.25;stroke-miterlimit:10;" x1="95.4" y1="47.4" x2="95.4" y2="51.1"/>
	<line style="fill:none;stroke:#868686;stroke-width:0.25;stroke-miterlimit:10;" x1="94.2" y1="47.2" x2="94.2" y2="49.1"/>
	<line style="fill:none;stroke:#868686;stroke-width:0.25;stroke-miterlimit:10;" x1="96.5" y1="47.2" x2="96.5" y2="49.1"/>
	<line style="fill:none;stroke:#868686;stroke-width:0.25;stroke-miterlimit:10;" x1="93.2" y1="46.5" x2="93.8" y2="42.3"/>
	<line style="fill:none;stroke:#868686;stroke-width:0.25;stroke-miterlimit:10;" x1="95.4" y1="46.9" x2="95" y2="42.3"/>
</g>
</svg>
