<?xml version="1.0" encoding="iso-8859-1"?>
<!-- Generator: Adobe Illustrator 16.0.0, SVG Export Plug-In . SVG Version: 6.00 Build 0)  -->
<!DOCTYPE svg PUBLIC "-//W3C//DTD SVG 1.1//EN" "http://www.w3.org/Graphics/SVG/1.1/DTD/svg11.dtd">
<svg version="1.1" id="Layer_1" xmlns="http://www.w3.org/2000/svg" xmlns:xlink="http://www.w3.org/1999/xlink" x="0px" y="0px"
	 width="200px" height="200px" viewBox="0 0 200 200" style="enable-background:new 0 0 200 200;" xml:space="preserve">
<g>
	<path style="fill:none;stroke:#868686;stroke-width:2;stroke-miterlimit:10;" d="M132.8,10c0,3.1-2.6,5.7-5.8,5.7H74.6
		c-3.2,0-5.8-2.5-5.8-5.7l0,0c0-3.1,2.6-5.7,5.8-5.7h52.5C130.3,4.3,132.8,6.9,132.8,10L132.8,10z"/>
	<path style="fill:none;stroke:#868686;stroke-width:2;stroke-miterlimit:10;" d="M78,15.7h45.7c0,0,0,30.2,0,40.3
		c0,31,42,77.6,58.7,102.7c14.7,22-5,30-5,30s-106.6,0-144.3,0c-5.6,0-23.9-3.6-14-24c9.7-20,59-62.6,59-108.7
		C78,18,78,15.7,78,15.7z"/>
</g>
<circle style="fill:none;stroke:#868686;stroke-width:2;stroke-miterlimit:10;" cx="41.8" cy="176.8" r="4.8"/>
<circle style="fill:none;stroke:#868686;stroke-width:2;stroke-miterlimit:10;" cx="73.8" cy="149.8" r="9.2"/>
<circle style="fill:none;stroke:#868686;stroke-width:2;stroke-miterlimit:10;" cx="93.2" cy="110.8" r="4.8"/>
<line style="fill:none;stroke:#868686;stroke-width:2;stroke-miterlimit:10;" x1="68.5" y1="91.5" x2="135.5" y2="91.5"/>
</svg>
