<?xml version="1.0" encoding="iso-8859-1"?>
<!-- Generator: Adobe Illustrator 16.0.0, SVG Export Plug-In . SVG Version: 6.00 Build 0)  -->
<!DOCTYPE svg PUBLIC "-//W3C//DTD SVG 1.1//EN" "http://www.w3.org/Graphics/SVG/1.1/DTD/svg11.dtd">
<svg version="1.1" id="Layer_1" xmlns="http://www.w3.org/2000/svg" xmlns:xlink="http://www.w3.org/1999/xlink" x="0px" y="0px"
	 width="200px" height="200px" viewBox="0 0 200 200" style="enable-background:new 0 0 200 200;" xml:space="preserve">
<g>
	<circle style="fill:none;stroke:#868686;stroke-width:2;stroke-miterlimit:10;" cx="78.1" cy="124.4" r="43.9"/>
	<circle style="fill:none;stroke:#868686;stroke-width:2;stroke-miterlimit:10;" cx="79.1" cy="125.4" r="12.1"/>
	<g>
		<g>
			<path style="fill:none;stroke:#868686;stroke-width:2;stroke-miterlimit:10;" d="M66.4,64.5"/>
			<path style="fill:none;stroke:#868686;stroke-width:2;stroke-miterlimit:10;" d="M67.2,66.2c8.3-2.3,14.2-0.5,19.1-0.1"/>
			<line style="fill:none;stroke:#868686;stroke-width:2;stroke-miterlimit:10;" x1="85.2" y1="66.7" x2="89.6" y2="55.1"/>
			<path style="fill:none;stroke:#868686;stroke-width:2;stroke-miterlimit:10;" d="M88.9,56c11,1.1,21.8,6.6,29,10.2"/>
			<line style="fill:none;stroke:#868686;stroke-width:2;stroke-miterlimit:10;" x1="116.7" y1="65.9" x2="112.6" y2="76.6"/>
		</g>
		<g>
			<path style="fill:none;stroke:#868686;stroke-width:2;stroke-miterlimit:10;" d="M114.2,73.9"/>
			<path style="fill:none;stroke:#868686;stroke-width:2;stroke-miterlimit:10;" d="M113.6,75.6c7.6,4.2,10.5,9.5,13.8,13.2"/>
			<line style="fill:none;stroke:#868686;stroke-width:2;stroke-miterlimit:10;" x1="126.1" y1="88.5" x2="137.4" y2="83.3"/>
			<path style="fill:none;stroke:#868686;stroke-width:2;stroke-miterlimit:10;" d="M136.2,83.4c7.2,8.4,11,19.9,13.7,27.5"/>
			<line style="fill:none;stroke:#868686;stroke-width:2;stroke-miterlimit:10;" x1="149.3" y1="109.9" x2="139" y2="114.7"/>
		</g>
	</g>
	<g>
		<path style="fill:none;stroke:#868686;stroke-width:2;stroke-miterlimit:10;" d="M141,113.7"/>
		<path style="fill:none;stroke:#868686;stroke-width:2;stroke-miterlimit:10;" d="M139.4,114.6c2.5,8.3,0.8,14.2,0.6,19"/>
		<line style="fill:none;stroke:#868686;stroke-width:2;stroke-miterlimit:10;" x1="139.3" y1="132.5" x2="151" y2="136.6"/>
		<path style="fill:none;stroke:#868686;stroke-width:2;stroke-miterlimit:10;" d="M150,135.9c-0.8,11-6.1,21.9-9.5,29.2"/>
		<line style="fill:none;stroke:#868686;stroke-width:2;stroke-miterlimit:10;" x1="140.8" y1="164" x2="130" y2="160.2"/>
	</g>
	<g>
		<path style="fill:none;stroke:#868686;stroke-width:2;stroke-miterlimit:10;" d="M132.9,160.5"/>
		<path style="fill:none;stroke:#868686;stroke-width:2;stroke-miterlimit:10;" d="M131.1,159.8c-4.5,7.4-10,10.1-13.7,13.2"/>
		<line style="fill:none;stroke:#868686;stroke-width:2;stroke-miterlimit:10;" x1="117.7" y1="171.8" x2="122.5" y2="183.2"/>
		<path style="fill:none;stroke:#868686;stroke-width:2;stroke-miterlimit:10;" d="M122.4,182.1c-8.7,6.8-20.4,10.2-28.1,12.6"/>
		<line style="fill:none;stroke:#868686;stroke-width:2;stroke-miterlimit:10;" x1="95.4" y1="194.1" x2="91" y2="183.5"/>
	</g>
	<g>
		<g>
			<g>
				<path style="fill:none;stroke:#868686;stroke-width:2;stroke-miterlimit:10;" d="M92.7,185.4"/>
				<path style="fill:none;stroke:#868686;stroke-width:2;stroke-miterlimit:10;" d="M91.9,183.8c-8.3,2.3-14.2,0.5-19.1,0.2"/>
				<line style="fill:none;stroke:#868686;stroke-width:2;stroke-miterlimit:10;" x1="73.9" y1="183.3" x2="69.6" y2="194.9"/>
				<path style="fill:none;stroke:#868686;stroke-width:2;stroke-miterlimit:10;" d="M70.3,194c-11-1-21.8-6.5-29-10.1"/>
				<line style="fill:none;stroke:#868686;stroke-width:2;stroke-miterlimit:10;" x1="42.4" y1="184.3" x2="46.4" y2="173.6"/>
			</g>
			<g>
				<path style="fill:none;stroke:#868686;stroke-width:2;stroke-miterlimit:10;" d="M44.8,176.3"/>
				<path style="fill:none;stroke:#868686;stroke-width:2;stroke-miterlimit:10;" d="M45.4,174.5c-7.6-4.1-10.5-9.5-13.8-13.1"/>
				<line style="fill:none;stroke:#868686;stroke-width:2;stroke-miterlimit:10;" x1="32.8" y1="161.7" x2="21.6" y2="167.1"/>
				<path style="fill:none;stroke:#868686;stroke-width:2;stroke-miterlimit:10;" d="M22.8,166.9c-7.2-8.4-11.1-19.9-13.9-27.4"/>
				<line style="fill:none;stroke:#868686;stroke-width:2;stroke-miterlimit:10;" x1="9.5" y1="140.5" x2="19.9" y2="135.6"/>
			</g>
		</g>
		<g>
			<path style="fill:none;stroke:#868686;stroke-width:2;stroke-miterlimit:10;" d="M17.8,136.6"/>
			<path style="fill:none;stroke:#868686;stroke-width:2;stroke-miterlimit:10;" d="M19.5,135.8c-2.5-8.3-0.9-14.1-0.7-19"/>
			<line style="fill:none;stroke:#868686;stroke-width:2;stroke-miterlimit:10;" x1="19.5" y1="117.8" x2="7.8" y2="113.8"/>
			<path style="fill:none;stroke:#868686;stroke-width:2;stroke-miterlimit:10;" d="M8.7,114.4c0.7-11,6-22,9.4-29.3"/>
			<line style="fill:none;stroke:#868686;stroke-width:2;stroke-miterlimit:10;" x1="17.8" y1="86.3" x2="28.6" y2="90.1"/>
		</g>
	</g>
	<g>
		<path style="fill:none;stroke:#868686;stroke-width:2;stroke-miterlimit:10;" d="M25.6,89.3"/>
		<path style="fill:none;stroke:#868686;stroke-width:2;stroke-miterlimit:10;" d="M27.4,89.9c4.6-7.4,10.2-10,14.1-13.1"/>
		<line style="fill:none;stroke:#868686;stroke-width:2;stroke-miterlimit:10;" x1="41.1" y1="78.1" x2="36.4" y2="66.6"/>
		<path style="fill:none;stroke:#868686;stroke-width:2;stroke-miterlimit:10;" d="M36.6,67.7c8.9-6.8,20.7-10.1,28.5-12.4"/>
		<line style="fill:none;stroke:#868686;stroke-width:2;stroke-miterlimit:10;" x1="64" y1="55.9" x2="68.3" y2="66.5"/>
	</g>
</g>
<g>
	<circle style="fill:none;stroke:#868686;stroke-width:2;stroke-miterlimit:10;" cx="152.5" cy="46.9" r="26"/>
	<circle style="fill:none;stroke:#868686;stroke-width:2;stroke-miterlimit:10;" cx="153.3" cy="47.2" r="7.2"/>
	<g>
		<g>
			<path style="fill:none;stroke:#868686;stroke-width:2;stroke-miterlimit:10;" d="M132.7,16.8"/>
			<path style="fill:none;stroke:#868686;stroke-width:2;stroke-miterlimit:10;" d="M133.5,17.5c4-3.1,7.6-3.4,10.4-4.3"/>
			<line style="fill:none;stroke:#868686;stroke-width:2;stroke-miterlimit:10;" x1="143.5" y1="13.8" x2="143.3" y2="6.5"/>
			<path style="fill:none;stroke:#868686;stroke-width:2;stroke-miterlimit:10;" d="M143.1,7.1c6.3-1.9,13.4-1.3,18.1-0.9"/>
			<line style="fill:none;stroke:#868686;stroke-width:2;stroke-miterlimit:10;" x1="160.5" y1="6.3" x2="160.7" y2="13"/>
		</g>
		<g>
			<path style="fill:none;stroke:#868686;stroke-width:2;stroke-miterlimit:10;" d="M161,11.2"/>
			<path style="fill:none;stroke:#868686;stroke-width:2;stroke-miterlimit:10;" d="M161,12.3c5.1,0.6,7.9,2.9,10.5,4.1"/>
			<line style="fill:none;stroke:#868686;stroke-width:2;stroke-miterlimit:10;" x1="170.8" y1="16.5" x2="175.7" y2="11.1"/>
			<path style="fill:none;stroke:#868686;stroke-width:2;stroke-miterlimit:10;" d="M175.1,11.5c5.8,3,10.5,8.4,13.7,12"/>
			<line style="fill:none;stroke:#868686;stroke-width:2;stroke-miterlimit:10;" x1="188.2" y1="23" x2="183.7" y2="28"/>
		</g>
	</g>
	<g>
		<path style="fill:none;stroke:#868686;stroke-width:2;stroke-miterlimit:10;" d="M184.6,26.9"/>
		<path style="fill:none;stroke:#868686;stroke-width:2;stroke-miterlimit:10;" d="M183.9,27.8c3.2,4,3.6,7.6,4.6,10.3"/>
		<line style="fill:none;stroke:#868686;stroke-width:2;stroke-miterlimit:10;" x1="187.8" y1="37.6" x2="195.1" y2="37.2"/>
		<path style="fill:none;stroke:#868686;stroke-width:2;stroke-miterlimit:10;" d="M194.5,37.1c2,6.2,1.6,13.4,1.4,18.1"/>
		<line style="fill:none;stroke:#868686;stroke-width:2;stroke-miterlimit:10;" x1="195.7" y1="54.5" x2="189" y2="54.8"/>
	</g>
	<g>
		<path style="fill:none;stroke:#868686;stroke-width:2;stroke-miterlimit:10;" d="M190.6,54.4"/>
		<path style="fill:none;stroke:#868686;stroke-width:2;stroke-miterlimit:10;" d="M189.5,54.4c-0.8,5-3.2,7.8-4.6,10.3"/>
		<line style="fill:none;stroke:#868686;stroke-width:2;stroke-miterlimit:10;" x1="184.9" y1="63.9" x2="190.1" y2="69.1"/>
		<path style="fill:none;stroke:#868686;stroke-width:2;stroke-miterlimit:10;" d="M189.7,68.5c-3.2,5.7-8.9,10.1-12.5,13.2"/>
		<line style="fill:none;stroke:#868686;stroke-width:2;stroke-miterlimit:10;" x1="177.7" y1="81.1" x2="172.9" y2="76.4"/>
	</g>
	<g>
		<g>
			<g>
				<path style="fill:none;stroke:#868686;stroke-width:2;stroke-miterlimit:10;" d="M174.2,77"/>
				<path style="fill:none;stroke:#868686;stroke-width:2;stroke-miterlimit:10;" d="M173.4,76.3c-4,3.1-7.6,3.5-10.4,4.4"/>
				<line style="fill:none;stroke:#868686;stroke-width:2;stroke-miterlimit:10;" x1="163.5" y1="80.1" x2="163.7" y2="87.4"/>
				<path style="fill:none;stroke:#868686;stroke-width:2;stroke-miterlimit:10;" d="M163.9,86.7c-6.2,1.9-13.4,1.3-18.1,1"/>
				<line style="fill:none;stroke:#868686;stroke-width:2;stroke-miterlimit:10;" x1="146.5" y1="87.7" x2="146.3" y2="80.9"/>
			</g>
			<g>
				<path style="fill:none;stroke:#868686;stroke-width:2;stroke-miterlimit:10;" d="M146,82.8"/>
				<path style="fill:none;stroke:#868686;stroke-width:2;stroke-miterlimit:10;" d="M145.9,81.7c-5.1-0.6-7.9-2.8-10.5-4.1"/>
				<line style="fill:none;stroke:#868686;stroke-width:2;stroke-miterlimit:10;" x1="136.2" y1="77.5" x2="131.3" y2="82.9"/>
				<path style="fill:none;stroke:#868686;stroke-width:2;stroke-miterlimit:10;" d="M131.8,82.6c-5.8-3-10.5-8.4-13.7-11.9"/>
				<line style="fill:none;stroke:#868686;stroke-width:2;stroke-miterlimit:10;" x1="118.7" y1="71.1" x2="123.2" y2="66.1"/>
			</g>
		</g>
		<g>
			<path style="fill:none;stroke:#868686;stroke-width:2;stroke-miterlimit:10;" d="M122.3,67.1"/>
			<path style="fill:none;stroke:#868686;stroke-width:2;stroke-miterlimit:10;" d="M123,66.3c-3.2-4-3.7-7.5-4.6-10.3"/>
			<line style="fill:none;stroke:#868686;stroke-width:2;stroke-miterlimit:10;" x1="119" y1="56.5" x2="111.7" y2="56.9"/>
			<path style="fill:none;stroke:#868686;stroke-width:2;stroke-miterlimit:10;" d="M112.4,57c-2.1-6.2-1.6-13.4-1.5-18.1"/>
			<line style="fill:none;stroke:#868686;stroke-width:2;stroke-miterlimit:10;" x1="111" y1="39.6" x2="117.8" y2="39.3"/>
		</g>
	</g>
	<g>
		<path style="fill:none;stroke:#868686;stroke-width:2;stroke-miterlimit:10;" d="M116,39.5"/>
		<path style="fill:none;stroke:#868686;stroke-width:2;stroke-miterlimit:10;" d="M117.1,39.5c0.9-5.1,3.3-7.8,4.8-10.3"/>
		<line style="fill:none;stroke:#868686;stroke-width:2;stroke-miterlimit:10;" x1="121.9" y1="29.9" x2="116.8" y2="24.7"/>
		<path style="fill:none;stroke:#868686;stroke-width:2;stroke-miterlimit:10;" d="M117.1,25.3c3.4-5.7,9.1-10.2,12.8-13.2"/>
		<line style="fill:none;stroke:#868686;stroke-width:2;stroke-miterlimit:10;" x1="129.5" y1="12.6" x2="134.2" y2="17.5"/>
	</g>
</g>
</svg>
