<?xml version="1.0" encoding="iso-8859-1"?>
<!-- Generator: Adobe Illustrator 16.0.0, SVG Export Plug-In . SVG Version: 6.00 Build 0)  -->
<!DOCTYPE svg PUBLIC "-//W3C//DTD SVG 1.1//EN" "http://www.w3.org/Graphics/SVG/1.1/DTD/svg11.dtd">
<svg version="1.1" id="Layer_1" xmlns="http://www.w3.org/2000/svg" xmlns:xlink="http://www.w3.org/1999/xlink" x="0px" y="0px"
	 width="200px" height="200px" viewBox="0 0 200 200" style="enable-background:new 0 0 200 200;" xml:space="preserve">
<path style="fill:none;stroke:#6F6F6E;stroke-width:2;stroke-miterlimit:10;" d="M191,174.5c0,8.9-5.4,16.1-12,16.1H20.5
	c-6.6,0-12-7.2-12-16.1V24.6c0-8.9,5.4-16.1,12-16.1H179c6.6,0,12,7.2,12,16.1V174.5z"/>
<line style="fill:none;stroke:#6F6F6E;stroke-width:2;stroke-miterlimit:10;" x1="99" y1="20.2" x2="99" y2="172"/>
<line style="fill:none;stroke:#6F6F6E;stroke-width:2;stroke-miterlimit:10;" x1="22" y1="35.8" x2="85.5" y2="35.8"/>
<line style="fill:none;stroke:#6F6F6E;stroke-width:2;stroke-miterlimit:10;" x1="113" y1="35.8" x2="176.5" y2="35.8"/>
<line style="fill:none;stroke:#6F6F6E;stroke-width:2;stroke-miterlimit:10;" x1="113" y1="49" x2="176.5" y2="49"/>
<line style="fill:none;stroke:#6F6F6E;stroke-width:2;stroke-miterlimit:10;" x1="113" y1="61" x2="167.5" y2="61"/>
<line style="fill:none;stroke:#6F6F6E;stroke-width:2;stroke-miterlimit:10;" x1="113" y1="73" x2="151.5" y2="73"/>
<line style="fill:none;stroke:#6F6F6E;stroke-width:2;stroke-miterlimit:10;" x1="113" y1="86.2" x2="151.5" y2="86.2"/>
<line style="fill:none;stroke:#6F6F6E;stroke-width:2;stroke-miterlimit:10;" x1="113" y1="99.4" x2="183.5" y2="99.4"/>
<line style="fill:none;stroke:#6F6F6E;stroke-width:2;stroke-miterlimit:10;" x1="113" y1="112.6" x2="165.2" y2="112.6"/>
<line style="fill:none;stroke:#6F6F6E;stroke-width:2;stroke-miterlimit:10;" x1="113" y1="127" x2="174" y2="127"/>
<line style="fill:none;stroke:#6F6F6E;stroke-width:2;stroke-miterlimit:10;" x1="113" y1="140.2" x2="161" y2="140.2"/>
<line style="fill:none;stroke:#6F6F6E;stroke-width:2;stroke-miterlimit:10;" x1="113" y1="153.4" x2="142.5" y2="153.4"/>
<line style="fill:none;stroke:#6F6F6E;stroke-width:2;stroke-miterlimit:10;" x1="113" y1="165.4" x2="174" y2="165.4"/>
<line style="fill:none;stroke:#6F6F6E;stroke-width:2;stroke-miterlimit:10;" x1="33" y1="50.8" x2="56.5" y2="50.8"/>
<line style="fill:none;stroke:#6F6F6E;stroke-width:2;stroke-miterlimit:10;" x1="33" y1="64" x2="66.5" y2="64"/>
<line style="fill:none;stroke:#6F6F6E;stroke-width:2;stroke-miterlimit:10;" x1="33" y1="74.8" x2="56.5" y2="74.8"/>
<line style="fill:none;stroke:#6F6F6E;stroke-width:2;stroke-miterlimit:10;" x1="33" y1="88" x2="66.5" y2="88"/>
<rect x="23.1" y="47.6" style="fill:none;stroke:#6F6F6E;stroke-width:2;stroke-miterlimit:10;" width="5.9" height="6.9"/>
<rect x="23.1" y="59.6" style="fill:none;stroke:#6F6F6E;stroke-width:2;stroke-miterlimit:10;" width="5.9" height="6.9"/>
<rect x="23.1" y="71.6" style="fill:none;stroke:#6F6F6E;stroke-width:2;stroke-miterlimit:10;" width="5.9" height="6.9"/>
<rect x="23.1" y="83.6" style="fill:none;stroke:#6F6F6E;stroke-width:2;stroke-miterlimit:10;" width="5.9" height="6.9"/>
<line style="fill:none;stroke:#6F6F6E;stroke-width:2;stroke-miterlimit:10;" x1="22" y1="110.2" x2="85.5" y2="110.2"/>
<line style="fill:none;stroke:#6F6F6E;stroke-width:2;stroke-miterlimit:10;" x1="33" y1="125.2" x2="72.8" y2="125.2"/>
<line style="fill:none;stroke:#6F6F6E;stroke-width:2;stroke-miterlimit:10;" x1="33" y1="138.4" x2="50" y2="138.4"/>
<line style="fill:none;stroke:#6F6F6E;stroke-width:2;stroke-miterlimit:10;" x1="33" y1="149.2" x2="70.2" y2="149.2"/>
<line style="fill:none;stroke:#6F6F6E;stroke-width:2;stroke-miterlimit:10;" x1="33" y1="162.4" x2="56.8" y2="162.4"/>
<rect x="23.1" y="122" style="fill:none;stroke:#6F6F6E;stroke-width:2;stroke-miterlimit:10;" width="5.9" height="6.9"/>
<rect x="23.1" y="134" style="fill:none;stroke:#6F6F6E;stroke-width:2;stroke-miterlimit:10;" width="5.9" height="6.9"/>
<rect x="23.1" y="146" style="fill:none;stroke:#6F6F6E;stroke-width:2;stroke-miterlimit:10;" width="5.9" height="6.9"/>
<rect x="23.1" y="158" style="fill:none;stroke:#6F6F6E;stroke-width:2;stroke-miterlimit:10;" width="5.9" height="6.9"/>
</svg>
